<svg xmlns="http://www.w3.org/2000/svg" viewBox="0 0 2543.37 2822.76"><defs><style>.cls-1{fill:#ee4574;}</style></defs><g id="Layer_2" data-name="Layer 2"><g id="Layer_1-2" data-name="Layer 1"><path class="cls-1" d="M808.33,2413.88c0-31.85-14.66-58.14-49.56-58.14-30.83,0-53.59,27.81-53.59,64.21v128.73a11.83,11.83,0,0,1-11.83,11.83H641.16a11.83,11.83,0,0,1-11.82-11.83V2320.85c0-9.61,6.58-18.2,20.23-21.24l41.9-8.68a11.83,11.83,0,0,1,14.22,11.58h0c0,10.34,12.07,15.41,19.88,8.64,15.92-13.78,36.91-22.66,64-22.66,60.17,0,95.56,39.94,95.56,101.63v158.56a11.83,11.83,0,0,1-11.82,11.83H820.15a11.83,11.83,0,0,1-11.82-11.83Z"/><path class="cls-1" d="M1186.31,2480.62H1055.2a15.19,15.19,0,0,0-14.1,9.56L1016.87,2551a15.17,15.17,0,0,1-14.09,9.56H954.66a15.17,15.17,0,0,1-13.94-21.15l137.06-320.14c5-12.13,14.67-18.71,29.83-18.71h41.55a15.18,15.18,0,0,1,13.95,9.22l140.76,329.65a15.17,15.17,0,0,1-14,21.13h-51.17a15.19,15.19,0,0,1-14.1-9.55l-24.24-60.78A15.17,15.17,0,0,0,1186.31,2480.62Zm-92.08-66.74h53.23a15.17,15.17,0,0,0,14.1-20.77l-26.34-66.4c-5-12.72-23-12.78-28.17-.09L1080.16,2393A15.18,15.18,0,0,0,1094.23,2413.88Z"/><path class="cls-1" d="M1743,2480.62H1614.71a17.23,17.23,0,0,0-16,10.85l-23.2,58.19a17.23,17.23,0,0,1-16,10.85H1515.9a17.23,17.23,0,0,1-15.84-24l135.85-317.28c5-12.13,14.66-18.71,29.82-18.71h40.19a17.24,17.24,0,0,1,15.85,10.47l139,325.54a17.23,17.23,0,0,1-15.84,24h-46.68a17.23,17.23,0,0,1-16-10.85L1759,2491.47A17.23,17.23,0,0,0,1743,2480.62Zm-87.64-66.74h47.16a17.23,17.23,0,0,0,16-23.58l-23.34-58.83c-5.73-14.44-26.15-14.51-32-.11l-23.82,58.83A17.22,17.22,0,0,0,1655.4,2413.88Z"/><path class="cls-1" d="M1909.89,2320.85c0-9.61,6.58-18.2,20.23-21.24l44.49-9.3a9.23,9.23,0,0,1,11.12,9V2311c0,8.33,10,12.16,15.89,6.29,17.52-17.42,40.37-28.8,72.6-28.8,64.2,0,122.35,52.08,122.35,138,0,87.47-57.64,140.06-122.35,140.06-32.23,0-55.94-10.81-73.24-26.88-5.78-5.37-15.25-.88-15.25,7v92a9.23,9.23,0,0,1-9.23,9.23h-57.38a9.23,9.23,0,0,1-9.23-9.23ZM2121.24,2427c0-44.5-29.33-74.83-67.75-74.83-36.41,0-65.73,30.33-65.73,74.32,0,46,29.32,76.35,65.73,76.35C2091.4,2502.87,2121.24,2473.54,2121.24,2427Z"/><path class="cls-1" d="M2256.69,2320.85c0-9.61,6.58-18.2,20.23-21.24l42.47-8.87a10.91,10.91,0,0,1,13.15,10.68V2307a10.85,10.85,0,0,0,18.26,8c17.2-16.11,39.43-26.5,70.22-26.5,64.21,0,122.35,52.08,122.35,138,0,87.47-57.63,140.06-122.35,140.06-30.58,0-53.48-9.73-70.52-24.45a10.85,10.85,0,0,0-18,8.23v86.71a10.91,10.91,0,0,1-10.92,10.91h-54a10.91,10.91,0,0,1-10.92-10.91ZM2468,2427c0-44.5-29.32-74.83-67.75-74.83-36.41,0-65.73,30.33-65.73,74.32,0,46,29.32,76.35,65.73,76.35C2438.21,2502.87,2468,2473.54,2468,2427Z"/><path class="cls-1" d="M528.81,2377.59a263.44,263.44,0,0,1-56.28,163.12l-93.51-98c17.06-29.89,22.67-67,11.14-105.75a127.36,127.36,0,0,0-86.36-85.46c-89.63-26-171.25,40.52-171.25,126.1a131.73,131.73,0,0,0,62.6,112.21l-97.74,92.8c-74.36-60.6-115.12-161-90-268.59,22.39-96.06,98.32-171.6,194.42-193.64C375.06,2080.72,528.81,2211.21,528.81,2377.59Z"/><path class="cls-1" d="M545.87,2623.43a95.27,95.27,0,0,1-132.37-6.67l-12.12-13-94.64-101.35-73.86-79.07a1.16,1.16,0,0,1,.83-1.92l120.41-3a3.87,3.87,0,0,1,2.94,1.21l22,23,93.51,98,73.5,77.07A3.94,3.94,0,0,1,545.87,2623.43Z"/><circle class="cls-1" cx="582.25" cy="2750.21" r="72.54"/><path class="cls-1" d="M1751.73,630.1a627.9,627.9,0,0,1-134.14,388.78l-222.85-233.6c40.66-71.24,54-159.67,26.54-252-29.16-98.06-107.5-175.09-205.84-203.7-213.6-62.07-408.13,96.57-408.13,300.54,0,113,59.64,212.1,149.2,267.44l-233,221.18C546.32,974.29,449.2,735.08,509.12,478.57c53.37-228.93,234.35-409,463.37-461.51C1385.29-77.44,1751.73,233.56,1751.73,630.1Z"/><path class="cls-1" d="M1792.4,1216c-91.61,80.39-231.46,74-315.5-15.89l-28.88-31L1222.45,927.64l-176-188.45a2.75,2.75,0,0,1,2-4.58l287-7.11a9.22,9.22,0,0,1,7,2.9l52.35,54.88,222.85,233.6,175.18,183.69A9.4,9.4,0,0,1,1792.4,1216Z"/><circle class="cls-1" cx="1879.09" cy="1518.2" r="172.89"/></g></g></svg>