<svg xmlns="http://www.w3.org/2000/svg" viewBox="0 0 248 222"><defs><style>.cls-1{fill:#ef4675;}.cls-2{fill:#e9256c;}.cls-3{fill:none;}.cls-4{fill:#fff;}</style></defs><g id="Layer_2" data-name="Layer 2"><g id="Layer_1-2" data-name="Layer 1"><rect class="cls-1" width="248" height="222" rx="12.37"/><path class="cls-2" d="M177.71,88a67.17,67.17,0,0,1-14.35,41.59l-23.84-25a34.07,34.07,0,0,0,2.84-27,32.47,32.47,0,0,0-22-21.79C97.49,49.16,76.68,66.13,76.68,88a33.58,33.58,0,0,0,16,28.61L67.72,140.22c-19-15.45-29.35-41-22.94-68.48A66.26,66.26,0,0,1,94.35,22.37C138.51,12.26,177.71,45.53,177.71,88Z"/><path class="cls-2" d="M182.06,150.63a24.29,24.29,0,0,1-33.75-1.7l-3.09-3.31-24.13-25.84L102.26,99.62a.29.29,0,0,1,.21-.49l30.7-.76a1,1,0,0,1,.75.31l5.6,5.87,23.84,25,18.74,19.65A1,1,0,0,1,182.06,150.63Z"/><circle class="cls-2" cx="191.33" cy="182.96" r="18.5"/><line class="cls-3" x1="90.3" y1="116.56" x2="90.29" y2="116.57"/><path class="cls-4" d="M175.35,88A67.17,67.17,0,0,1,161,129.54l-23.84-25a34.07,34.07,0,0,0,2.84-27A32.47,32.47,0,0,0,118,55.8C95.13,49.16,74.32,66.13,74.32,88a33.58,33.58,0,0,0,16,28.61L65.36,140.22c-19-15.45-29.35-41-22.94-68.48A66.26,66.26,0,0,1,92,22.37C136.15,12.26,175.35,45.53,175.35,88Z"/><path class="cls-4" d="M179.7,150.63a24.29,24.29,0,0,1-33.75-1.7l-3.09-3.31-24.13-25.84L99.9,99.62a.29.29,0,0,1,.21-.49l30.7-.76a1,1,0,0,1,.75.31l5.6,5.87,23.84,25,18.74,19.65A1,1,0,0,1,179.7,150.63Z"/><circle class="cls-4" cx="188.98" cy="182.96" r="18.5"/><line class="cls-3" x1="65.39" y1="140.19" x2="65.36" y2="140.22"/></g></g></svg>