<?xml version="1.0" standalone="no"?>
<!DOCTYPE svg PUBLIC "-//W3C//DTD SVG 20010904//EN"
 "http://www.w3.org/TR/2001/REC-SVG-20010904/DTD/svg10.dtd">
<svg version="1.0" xmlns="http://www.w3.org/2000/svg"
 width="2896.000000pt" height="2896.000000pt" viewBox="0 0 2896.000000 2896.000000"
 preserveAspectRatio="xMidYMid meet">
<metadata>
Created by potrace 1.16, written by Peter Selinger 2001-2019
</metadata>
<g transform="translate(0.000000,2896.000000) scale(0.100000,-0.100000)"
fill="#000000" stroke="none">
<path d="M13847 21785 c-3 -18 12 -59 50 -133 29 -59 58 -114 64 -122 8 -13
58 -103 176 -320 20 -36 65 -117 101 -180 97 -172 106 -189 147 -265 21 -38
41 -74 45 -80 4 -5 23 -39 42 -75 46 -84 206 -371 321 -575 91 -160 148 -247
182 -275 12 -10 39 -15 79 -14 67 0 45 -9 486 206 547 267 672 330 690 350 43
46 14 88 -116 171 -72 46 -709 423 -1063 629 -46 27 -97 58 -112 69 -15 10
-30 19 -33 19 -3 0 -52 28 -108 61 -57 34 -116 70 -133 79 -16 9 -55 32 -85
50 -30 18 -68 41 -85 50 -16 10 -70 41 -120 70 -49 29 -114 67 -142 84 -29 16
-53 34 -53 38 0 4 24 -2 53 -13 155 -61 303 -123 311 -131 6 -4 16 -8 23 -8 7
0 35 -10 61 -21 92 -41 110 -49 116 -49 3 0 28 -9 54 -21 26 -12 56 -25 67
-29 11 -4 36 -15 55 -23 19 -9 175 -72 345 -142 171 -70 324 -132 340 -139 17
-8 73 -30 125 -51 52 -21 115 -47 140 -58 25 -10 55 -23 68 -28 12 -5 32 -13
45 -19 12 -5 47 -19 77 -31 30 -11 71 -27 90 -36 19 -8 44 -19 55 -23 11 -4
37 -16 59 -25 21 -9 142 -59 268 -110 127 -52 233 -96 235 -99 4 -4 -103 -204
-200 -376 -11 -19 -33 -59 -49 -87 -75 -139 -87 -161 -111 -205 -15 -27 -39
-69 -53 -95 -15 -27 -42 -75 -61 -108 -19 -33 -37 -68 -40 -77 -6 -21 -23 -24
-23 -5 0 19 27 217 44 327 8 52 20 140 26 194 17 156 12 156 -204 27 -72 -43
-190 -113 -263 -155 -187 -109 -188 -113 -102 -199 65 -65 66 -62 5 15 -24 31
-36 53 -32 65 3 10 93 69 203 133 108 63 234 137 280 164 46 27 86 46 90 42 3
-3 -1 -68 -11 -143 -22 -185 -56 -494 -56 -515 0 -10 6 -18 13 -18 13 0 43 45
97 145 18 33 43 78 55 100 12 22 36 65 53 95 16 30 49 89 72 130 23 41 58 104
77 140 20 36 39 70 43 75 4 6 27 46 50 90 24 44 52 95 62 113 10 17 27 49 39
70 12 20 26 43 31 50 14 16 15 16 -72 53 -41 17 -91 38 -110 46 -42 18 -51 22
-155 63 -44 18 -96 39 -115 47 -19 8 -44 19 -55 23 -11 4 -36 15 -57 24 -20 9
-39 16 -42 16 -3 0 -28 9 -54 21 -26 12 -56 24 -67 29 -30 11 -65 26 -108 45
-21 9 -226 93 -455 186 -229 94 -433 177 -452 186 -19 8 -44 18 -55 23 -31 12
-66 26 -117 49 -26 12 -51 21 -54 21 -3 0 -22 7 -42 16 -21 9 -47 20 -59 25
-13 5 -33 13 -45 18 -13 5 -43 18 -68 28 -25 11 -76 32 -115 48 -38 15 -88 35
-110 45 -22 9 -94 38 -160 64 -66 26 -135 54 -153 62 -36 16 -54 11 -46 -11 6
-14 128 -91 374 -235 69 -40 159 -93 200 -118 41 -25 89 -53 105 -62 17 -10
71 -41 120 -70 50 -29 104 -60 120 -70 42 -24 245 -144 334 -198 41 -24 88
-52 105 -62 78 -45 207 -120 270 -158 37 -23 70 -42 73 -42 2 0 24 -13 48 -30
24 -16 46 -30 48 -30 3 0 35 -18 72 -41 37 -22 82 -49 99 -59 71 -41 143 -87
179 -114 29 -23 37 -35 35 -55 -3 -23 -30 -39 -254 -151 -312 -156 -758 -374
-843 -412 -74 -34 -106 -31 -148 13 -29 29 -118 174 -188 304 -20 39 -40 75
-45 80 -4 6 -30 53 -58 106 -28 53 -65 120 -82 148 -16 29 -30 54 -30 56 0 2
-22 42 -50 90 -27 48 -50 88 -50 91 0 2 -20 38 -45 80 -25 41 -45 77 -45 80 0
3 -129 235 -286 514 -101 181 -115 206 -169 314 -30 60 -55 115 -55 122 0 19
19 18 128 -12 54 -15 113 -30 132 -34 19 -5 89 -23 155 -40 66 -18 139 -36
163 -41 24 -5 47 -11 52 -14 5 -3 28 -9 52 -14 39 -8 124 -29 268 -66 30 -7
84 -21 120 -30 36 -9 79 -20 96 -26 16 -5 50 -13 75 -18 24 -5 71 -16 104 -24
120 -30 201 -49 243 -58 24 -5 47 -11 52 -14 5 -3 28 -9 52 -14 45 -10 146
-33 238 -56 66 -16 182 -44 230 -55 19 -4 58 -13 85 -20 28 -6 75 -18 105 -25
30 -8 82 -20 115 -29 63 -16 117 -29 305 -72 63 -14 136 -32 162 -40 26 -8 55
-14 64 -14 9 0 40 -6 68 -14 47 -14 82 -22 256 -62 91 -21 180 -44 216 -55 17
-5 38 -9 47 -9 9 0 19 -4 22 -10 6 -9 -23 -24 -205 -107 -193 -88 -230 -107
-230 -115 0 -17 23 -9 175 62 106 49 205 94 253 115 80 35 52 64 -98 100 -41
9 -95 24 -119 31 -25 8 -54 14 -66 14 -12 0 -41 6 -66 14 -24 7 -78 21 -119
30 -41 10 -100 23 -130 31 -30 8 -86 21 -125 30 -38 8 -86 20 -105 25 -19 5
-69 16 -110 26 -41 9 -96 23 -122 30 -26 8 -55 14 -66 14 -10 0 -38 6 -63 14
-24 7 -78 21 -119 30 -41 10 -100 23 -130 31 -30 8 -104 26 -165 40 -60 14
-135 32 -165 40 -30 7 -86 21 -125 30 -38 9 -95 22 -125 30 -30 8 -86 21 -125
30 -38 9 -86 21 -105 26 -19 5 -91 23 -160 39 -69 17 -151 37 -182 45 -32 8
-86 22 -120 31 -35 8 -79 20 -98 25 -19 5 -91 23 -160 39 -69 17 -141 36 -160
42 -19 6 -51 15 -70 19 -19 4 -89 21 -155 39 -226 60 -260 64 -268 25z"/>
<path d="M5660 20304 c-77 -32 -299 -128 -440 -192 -30 -13 -95 -42 -145 -64
-49 -22 -117 -54 -150 -72 -33 -18 -105 -57 -160 -86 -116 -61 -150 -84 -301
-206 -61 -49 -165 -125 -230 -169 -267 -180 -359 -261 -534 -470 -118 -140
-133 -161 -210 -299 -82 -147 -299 -477 -402 -611 -138 -181 -160 -217 -269
-446 -176 -371 -172 -358 -225 -737 -20 -145 -24 -196 -16 -204 17 -17 21 -8
36 78 13 76 20 119 51 336 23 154 48 218 234 598 75 153 106 205 181 300 117
149 359 511 447 669 37 68 106 171 152 230 123 155 326 352 450 436 156 106
316 222 416 303 141 115 357 231 745 401 140 62 278 123 305 136 28 12 79 33
115 46 72 25 92 37 84 50 -9 16 -47 8 -134 -27z"/>
<path d="M7080 20233 c-238 -6 -527 -38 -825 -92 -425 -77 -797 -200 -1167
-388 -951 -482 -1643 -1278 -2043 -2348 -202 -539 -337 -1191 -376 -1819 -14
-225 -14 -744 0 -976 25 -412 88 -885 176 -1325 36 -180 119 -533 134 -575 6
-14 21 -68 35 -120 14 -52 48 -165 76 -250 391 -1193 1063 -2186 1900 -2807
519 -384 1075 -633 1675 -747 202 -38 251 -45 432 -61 676 -60 1430 45 2106
291 231 85 396 162 704 330 l52 29 511 -510 c281 -280 514 -510 520 -510 8 0
78 72 394 410 77 83 181 193 231 245 50 52 126 133 170 180 43 47 115 123 160
170 311 328 375 399 370 411 -3 8 -233 238 -510 513 -278 274 -505 505 -505
512 0 8 29 73 65 144 80 161 140 294 210 471 57 143 161 448 166 489 l4 25
-245 6 c-260 6 -267 7 -379 63 -64 33 -157 125 -193 192 -15 28 -36 80 -45
115 -17 60 -18 189 -18 2209 0 2020 1 2149 18 2209 49 178 183 309 364 356 31
8 74 15 95 15 20 0 39 3 41 8 7 11 -91 231 -193 437 -391 788 -866 1389 -1460
1846 -293 226 -655 432 -975 555 -49 19 -99 39 -110 44 -31 15 -270 89 -373
115 -367 96 -812 147 -1192 138z m437 -2018 c530 -68 934 -266 1303 -635 339
-339 580 -761 786 -1377 35 -106 74 -227 85 -270 90 -343 152 -632 198 -923
148 -924 149 -1716 5 -2300 -36 -146 -106 -350 -120 -350 -6 0 -33 24 -59 53
-27 28 -105 111 -175 182 -69 72 -261 270 -425 440 -165 171 -358 371 -431
445 -72 74 -232 240 -355 368 -123 127 -227 232 -230 232 -4 0 -108 -113 -231
-252 -376 -424 -615 -694 -803 -908 -99 -112 -204 -230 -232 -262 -29 -32 -53
-63 -53 -69 0 -6 98 -111 218 -232 203 -207 383 -391 897 -917 466 -476 510
-522 510 -532 0 -25 -339 -101 -600 -133 -285 -35 -634 -8 -900 71 -136 40
-168 51 -257 88 -200 82 -418 218 -609 378 -436 365 -790 935 -1017 1638 -62
195 -69 217 -111 386 -150 599 -241 1328 -241 1923 0 835 151 1432 491 1942
386 579 988 930 1729 1008 58 6 119 13 135 15 89 10 387 4 492 -9z"/>
<path d="M8054 14173 c-115 -126 -211 -230 -214 -233 -5 -5 -361 -391 -555
-603 -96 -105 -119 -137 -96 -137 11 0 70 61 262 270 63 69 247 269 409 445
162 176 322 351 357 389 58 63 77 96 54 96 -4 0 -102 -102 -217 -227z"/>
<path d="M8152 14166 c3 -14 55 -70 363 -386 82 -85 287 -296 454 -467 167
-172 308 -313 313 -313 5 0 8 6 6 14 -3 15 -51 67 -337 361 -85 88 -227 234
-315 325 -459 474 -493 506 -484 466z"/>
<path d="M16767 19604 c-38 -12 -119 -47 -180 -77 -62 -31 -137 -63 -167 -74
-58 -19 -172 -24 -225 -10 -19 5 -26 5 -20 -1 13 -13 105 -32 151 -32 47 0
166 42 284 99 190 93 291 115 407 87 86 -21 108 -31 157 -77 63 -57 88 -152
65 -245 -17 -72 -61 -207 -71 -221 -6 -7 -8 -18 -6 -24 5 -14 58 91 85 167 11
33 17 80 18 144 0 80 -4 102 -22 136 -22 41 -73 88 -123 112 -102 49 -238 56
-353 16z"/>
<path d="M16280 19234 c-171 -31 -289 -113 -355 -247 -110 -224 -45 -503 147
-630 107 -71 292 -98 423 -63 94 25 95 26 95 116 0 45 -4 80 -10 80 -5 0 -29
-10 -52 -22 -37 -20 -58 -23 -159 -23 -111 0 -117 1 -164 30 -104 64 -151 168
-143 310 15 234 214 351 453 266 32 -11 63 -21 67 -21 4 0 8 36 8 79 l0 80
-54 20 c-54 20 -203 35 -256 25z"/>
<path d="M20975 19233 c-224 -30 -369 -216 -368 -473 0 -155 37 -262 120 -351
90 -96 189 -133 341 -127 126 5 192 31 271 103 126 117 176 302 136 497 -52
247 -248 385 -500 351z m156 -168 c99 -35 159 -133 167 -275 8 -152 -32 -259
-119 -317 -34 -23 -56 -28 -115 -31 -40 -2 -88 1 -107 7 -39 13 -101 71 -125
116 -45 88 -54 218 -21 328 44 149 180 221 320 172z"/>
<path d="M21962 19229 c-114 -20 -225 -98 -284 -200 -37 -63 -68 -189 -68
-274 0 -82 29 -198 68 -268 36 -68 129 -150 199 -178 49 -20 76 -24 178 -24
150 0 207 20 295 102 72 66 114 146 135 256 19 100 19 139 -1 234 -45 219
-183 343 -397 357 -40 3 -96 1 -125 -5z m169 -161 c49 -14 114 -69 138 -117
41 -81 52 -214 26 -314 -19 -75 -55 -130 -107 -164 -35 -23 -55 -29 -119 -32
-65 -2 -86 1 -125 19 -90 44 -144 157 -144 301 0 119 33 205 99 260 66 56 148
73 232 47z"/>
<path d="M11355 19218 c-2 -7 -72 -215 -155 -463 -83 -247 -148 -455 -146
-462 4 -9 30 -13 86 -13 93 0 82 -11 126 133 l26 87 178 0 178 0 32 -102 c18
-57 37 -106 44 -110 16 -11 164 -10 170 1 5 7 -293 906 -309 931 -10 15 -225
13 -230 -2z m155 -268 c12 -41 37 -125 56 -186 19 -61 34 -113 34 -117 0 -4
-59 -7 -131 -7 -119 0 -130 1 -125 18 67 224 118 390 122 402 7 17 8 14 44
-110z"/>
<path d="M12047 19223 c-4 -3 -7 -214 -7 -469 0 -523 -9 -474 90 -474 95 0 90
-10 90 171 l0 159 78 0 c187 1 315 69 368 197 21 49 20 178 0 228 -40 94 -131
163 -245 185 -59 11 -364 14 -374 3z m373 -155 c65 -34 85 -67 85 -141 0 -121
-54 -168 -197 -175 l-88 -4 0 171 0 171 78 0 c61 0 87 -5 122 -22z"/>
<path d="M13075 19218 c-3 -7 -74 -219 -159 -470 -123 -365 -151 -458 -139
-462 31 -12 150 -6 162 8 6 8 25 57 42 110 l30 96 177 -2 177 -3 35 -105 35
-105 70 -3 c132 -6 136 -58 -44 476 l-157 467 -112 3 c-84 2 -114 -1 -117 -10z
m179 -355 c32 -109 61 -204 63 -210 4 -10 -25 -13 -126 -13 -72 0 -131 3 -131
6 0 4 27 96 60 206 33 109 60 201 60 203 0 3 3 5 8 5 4 0 33 -89 66 -197z"/>
<path d="M13767 19223 c-4 -3 -7 -214 -7 -469 0 -523 -9 -474 90 -474 96 0 90
-11 90 181 l0 169 48 0 47 0 103 -169 c57 -93 110 -172 119 -175 22 -9 166 -7
180 2 9 6 -3 31 -40 87 -29 44 -81 125 -116 180 l-64 99 24 15 c13 8 45 36 71
63 59 59 83 130 76 227 -10 133 -91 223 -230 256 -65 15 -378 22 -391 8z m370
-162 c102 -47 104 -212 3 -263 -25 -13 -59 -18 -117 -18 l-83 0 0 150 0 150
78 0 c54 0 89 -6 119 -19z"/>
<path d="M14548 19065 c-2 -92 1 -173 5 -181 12 -22 114 -19 125 4 5 9 9 89 8
177 l-1 160 -67 3 -67 3 -3 -166z"/>
<path d="M15034 19217 c-142 -37 -214 -122 -214 -255 0 -127 48 -182 240 -277
139 -68 163 -89 163 -142 0 -59 -26 -90 -89 -109 -49 -14 -61 -14 -129 0 -41
9 -97 27 -124 41 -28 14 -53 25 -56 25 -3 0 -5 -36 -5 -80 0 -72 2 -81 23 -94
68 -44 278 -61 373 -30 92 31 155 90 179 168 19 63 19 111 -1 169 -24 70 -79
118 -207 180 -172 83 -205 121 -172 191 23 48 55 61 149 60 61 0 93 -6 130
-22 27 -12 53 -22 58 -22 5 0 8 37 6 83 l-3 82 -55 18 c-71 24 -200 30 -266
14z"/>
<path d="M16750 18761 c0 -418 2 -470 16 -475 20 -8 488 -8 508 0 13 5 16 22
16 80 0 41 -1 75 -2 76 -2 1 -84 4 -183 7 l-180 6 -3 388 -2 387 -85 0 -85 0
0 -469z"/>
<path d="M17685 19215 c-3 -8 -8 -23 -11 -32 -105 -303 -293 -881 -290 -890 6
-14 142 -19 162 -5 6 4 26 53 43 110 l33 102 174 0 174 0 15 -32 c7 -18 24
-64 35 -103 12 -38 27 -73 33 -77 7 -4 30 -8 51 -8 l39 0 -7 -102 c-3 -57 -12
-125 -20 -153 l-13 -50 -206 -3 c-184 -2 -208 -4 -216 -20 -14 -27 -1841
-5499 -1841 -5514 0 -4 295 -8 655 -8 l654 0 31 103 c17 56 40 134 51 172 12
39 36 120 54 180 18 61 67 227 109 370 43 143 81 270 86 283 l10 22 970 0 970
0 10 -22 c6 -13 36 -113 69 -223 32 -110 89 -301 126 -425 37 -124 82 -276
100 -338 18 -62 35 -115 37 -118 3 -2 306 -3 675 -2 l670 3 -183 550 c-971
2914 -1658 4962 -1666 4973 -8 9 -135 12 -574 12 -310 0 -564 3 -564 8 0 4 7
50 15 102 8 52 15 119 15 148 0 47 2 52 23 52 12 0 27 4 34 8 8 5 -23 110
-108 362 -66 195 -137 405 -157 465 l-37 110 -113 3 c-94 2 -113 0 -117 -13z
m160 -285 c20 -69 47 -159 61 -200 13 -41 24 -78 24 -82 0 -5 -59 -8 -131 -8
l-130 0 6 23 c7 26 52 174 70 232 7 22 21 70 31 107 10 37 22 64 26 60 4 -4
23 -63 43 -132z m639 -1976 c7 -56 98 -426 167 -684 69 -260 106 -395 138
-505 11 -38 47 -164 80 -280 92 -327 204 -711 240 -825 12 -36 21 -68 21 -72
0 -5 -302 -8 -671 -8 -635 0 -671 1 -666 18 39 124 190 640 307 1047 172 601
286 1041 331 1269 18 96 25 115 35 102 6 -9 14 -37 18 -62z"/>
<path d="M18565 19217 c-157 -40 -246 -165 -215 -301 22 -99 69 -147 210 -216
47 -23 100 -49 119 -58 107 -55 92 -183 -27 -211 -58 -14 -166 5 -242 44 -27
14 -52 25 -55 25 -3 0 -5 -36 -5 -80 0 -72 2 -81 23 -94 69 -45 274 -61 375
-29 141 45 219 186 178 325 -22 75 -85 132 -219 196 -159 76 -193 115 -163
185 21 51 72 71 162 64 40 -3 93 -15 119 -26 26 -12 52 -21 57 -21 5 0 8 37 6
83 l-3 82 -55 18 c-71 24 -200 30 -265 14z"/>
<path d="M19278 19214 c-108 -26 -177 -87 -204 -181 -29 -99 0 -192 80 -258
25 -20 95 -61 156 -91 135 -66 160 -88 160 -143 0 -120 -168 -153 -338 -67
-28 14 -54 26 -57 26 -3 0 -5 -38 -5 -84 l0 -84 43 -16 c121 -44 269 -50 363
-15 116 44 178 128 178 244 0 129 -47 182 -248 283 -99 50 -129 70 -142 94
-23 44 -11 91 29 120 44 32 166 31 247 0 30 -12 58 -22 63 -22 4 0 7 36 7 80
0 93 1 92 -110 115 -86 18 -146 18 -222 -1z"/>
<path d="M19822 18758 l3 -473 80 0 80 0 5 170 5 170 50 0 50 0 67 -110 c38
-60 86 -138 108 -172 l39 -63 96 0 c67 0 95 4 95 12 0 6 -50 90 -112 187
l-112 174 25 16 c13 8 44 35 69 61 132 132 95 371 -69 455 -68 34 -145 45
-323 45 l-158 0 2 -472z m375 303 c51 -24 73 -63 73 -131 0 -109 -57 -153
-193 -148 l-82 3 -3 134 c-1 74 0 141 2 148 9 21 152 17 203 -6z"/>
<path d="M22716 19198 c-3 -18 -19 -208 -36 -423 -16 -214 -32 -411 -34 -437
-4 -35 -1 -48 10 -52 29 -11 141 -6 151 7 8 9 54 567 53 637 0 34 22 -15 69
-155 29 -82 78 -222 110 -310 l58 -160 60 -3 c51 -2 62 0 68 15 8 21 223 601
231 622 11 32 18 -8 30 -171 19 -255 40 -464 48 -477 8 -13 134 -15 154 -2 14
8 10 62 -43 586 -8 77 -17 176 -20 220 -3 44 -9 92 -11 108 l-6 27 -97 0 -98
0 -38 -97 c-70 -184 -181 -488 -193 -530 -7 -24 -16 -43 -20 -43 -4 0 -28 62
-54 138 -52 153 -174 487 -189 514 -8 15 -24 18 -104 18 l-94 0 -5 -32z"/>
<path d="M23856 18512 c-4 -6 -2 -48 4 -94 20 -160 6 -221 -62 -270 -29 -20
-46 -23 -156 -27 -160 -4 -184 1 -234 51 l-40 40 -26 -25 c-50 -46 -85 -57
-182 -57 -90 0 -121 9 -181 52 -13 9 -24 5 -59 -23 l-42 -34 -152 0 c-145 0
-152 1 -184 24 -18 14 -40 42 -50 63 -9 20 -20 38 -25 38 -4 0 -34 -19 -67
-41 -97 -66 -183 -91 -330 -96 l-125 -5 -116 -61 -117 -61 -63 58 c-62 56
-219 166 -237 166 -4 0 -39 -16 -77 -35 -120 -60 -265 -79 -410 -55 l-60 11
-50 -55 c-50 -53 -155 -218 -155 -242 0 -6 88 -100 195 -209 l195 -197 -45
-50 c-164 -182 -294 -641 -298 -1048 -2 -161 -1 -166 26 -224 39 -83 148 -189
273 -262 269 -158 526 -230 695 -195 79 17 240 100 344 178 111 84 321 287
426 411 139 167 213 286 265 427 26 72 29 92 29 200 -1 109 -3 126 -30 190
-25 60 -46 88 -155 200 -169 175 -208 224 -189 237 54 37 247 120 319 137 223
51 532 71 718 46 426 -56 820 -182 1272 -406 468 -233 731 -458 815 -695 19
-53 25 -90 25 -160 0 -81 -3 -97 -30 -152 -83 -165 -369 -406 -825 -694 -433
-273 -913 -542 -1412 -790 -271 -135 -362 -179 -643 -309 -445 -207 -720 -387
-970 -638 -75 -75 -162 -171 -194 -214 -66 -89 -147 -217 -142 -226 2 -3 66
-197 144 -431 94 -285 143 -446 147 -490 25 -247 -136 -465 -387 -526 -38 -9
-68 -21 -68 -26 0 -59 126 -475 198 -654 27 -68 28 -69 77 -82 65 -17 293 -9
393 13 68 16 132 53 132 76 0 5 -25 62 -56 127 -188 391 -208 499 -126 664
201 404 866 950 2042 1678 180 111 370 225 695 415 412 241 569 353 779 555
500 483 784 1081 890 1880 17 124 24 353 16 474 -28 381 -127 631 -335 841
-279 283 -699 455 -1360 559 -228 36 -638 66 -649 48z"/>
<path d="M17302 17758 c-11 -14 -30 -67 -297 -818 -103 -289 -208 -586 -235
-660 -27 -74 -74 -207 -105 -295 -31 -88 -72 -204 -92 -257 -19 -54 -32 -105
-29 -114 11 -29 39 -10 57 41 9 28 49 140 89 250 39 110 98 274 130 365 63
178 102 289 260 730 186 522 198 554 230 647 30 86 34 123 12 123 -5 0 -14 -6
-20 -12z"/>
<path d="M13574 16615 c-275 -41 -509 -145 -699 -314 -44 -39 -87 -79 -96 -88
-40 -43 -119 -156 -159 -227 -24 -42 -48 -76 -52 -76 -4 0 -8 153 -8 340 l0
340 -600 0 -600 0 0 -2080 0 -2080 600 0 599 0 4 1233 c3 1232 3 1232 25 1327
53 226 120 358 245 477 153 147 333 213 542 199 186 -12 301 -61 415 -175 88
-89 128 -162 168 -308 l27 -98 3 -1327 3 -1328 594 0 595 0 0 1403 c0 1490 -3
1573 -49 1785 -26 121 -74 258 -124 357 -152 303 -424 519 -764 605 -183 47
-481 62 -669 35z"/>
<path d="M13405 15529 c-12 -18 26 -36 106 -52 91 -18 145 -51 212 -129 54
-63 69 -100 96 -233 36 -176 44 -286 36 -502 -7 -200 -7 -201 15 -208 12 -4
25 -4 28 0 4 4 7 136 7 293 -1 237 -4 300 -18 362 -10 41 -22 100 -27 131 -6
31 -19 77 -30 102 -25 56 -140 177 -195 204 -72 37 -215 57 -230 32z"/>
<path d="M19250 13523 c-70 -12 -269 -62 -289 -72 -16 -9 -20 -18 -15 -34 9
-30 9 -30 33 -17 21 11 199 52 278 64 51 7 45 16 108 -164 100 -289 165 -509
165 -560 0 -18 27 -40 49 -40 29 0 -9 169 -90 407 -28 81 -66 195 -85 253 -42
129 -50 145 -81 159 -24 11 -29 11 -73 4z"/>
<path d="M12110 11750 c-67 -23 -119 -77 -152 -158 -23 -57 -23 -58 -23 -582
0 -522 0 -525 23 -581 27 -67 79 -131 126 -153 31 -15 357 -16 4021 -16 3483
0 3990 2 4014 15 51 26 110 103 131 173 19 60 20 93 20 561 0 549 -1 560 -63
654 -23 34 -47 55 -87 75 l-55 27 -3950 2 c-3852 2 -3951 2 -4005 -17z m1694
-337 c3 -10 28 -103 56 -208 106 -404 122 -457 131 -448 4 4 21 58 39 118 17
61 35 124 41 140 5 17 29 102 54 190 71 248 61 227 103 223 42 -4 34 19 147
-388 43 -151 81 -279 85 -284 5 -5 13 9 18 30 30 115 164 617 168 629 6 15 64
22 76 9 3 -3 -3 -38 -14 -77 -41 -148 -128 -461 -176 -632 l-28 -100 -39 0
c-23 0 -41 6 -46 15 -4 8 -27 80 -49 160 -23 80 -55 188 -70 240 -16 52 -38
128 -50 169 -12 40 -25 70 -30 65 -4 -5 -47 -144 -94 -309 -48 -165 -91 -310
-97 -323 -8 -19 -15 -23 -47 -20 -43 3 -39 -4 -98 208 -33 118 -73 261 -131
465 -42 148 -42 145 5 145 30 0 42 -5 46 -17z m1496 -18 l0 -34 -157 -3 -158
-3 0 -145 0 -145 148 -3 148 -3 -3 -32 -3 -32 -145 -5 -145 -5 0 -150 0 -150
163 -3 163 -3 -3 -32 -3 -32 -194 -3 c-149 -2 -196 1 -203 10 -9 15 -11 768
-2 792 5 14 32 16 200 16 l194 0 0 -35z m610 5 c116 -65 132 -206 34 -310
l-44 -47 30 -13 c133 -55 144 -279 18 -366 -57 -40 -127 -54 -265 -54 l-123 0
0 411 0 411 153 -4 c140 -3 155 -5 197 -28z m1030 -210 c48 -129 115 -309 148
-399 36 -94 58 -169 53 -174 -5 -5 -24 -7 -42 -5 -33 3 -34 5 -73 113 -22 61
-45 113 -50 117 -15 10 -318 10 -333 0 -7 -4 -30 -57 -50 -117 -38 -109 -39
-110 -72 -113 -18 -2 -37 0 -42 5 -4 4 50 163 122 353 72 190 138 365 146 390
22 63 31 71 71 68 l34 -3 88 -235z m709 210 c24 -14 58 -42 75 -63 25 -31 31
-49 34 -102 6 -86 -2 -123 -39 -179 -52 -78 -169 -129 -284 -124 l-50 2 -3
-163 -3 -162 -37 3 -37 3 -3 395 c-1 217 0 401 3 408 4 11 36 13 153 10 135
-3 151 -5 191 -28z m679 -4 c151 -84 145 -315 -10 -412 -43 -28 -154 -56 -207
-54 -20 1 -42 2 -48 1 -10 -1 -13 -40 -13 -161 l0 -160 -34 0 c-22 0 -36 6
-40 16 -8 21 -8 768 0 789 6 15 24 16 153 13 140 -3 148 -4 199 -32z"/>
<path d="M15640 11214 l0 -147 89 5 c141 8 192 49 192 153 0 104 -43 133 -193
134 l-88 1 0 -146z"/>
<path d="M15642 10844 l3 -159 95 0 c78 1 103 5 137 23 52 27 77 71 77 137 1
103 -62 147 -217 153 l-98 4 3 -158z"/>
<path d="M16800 11297 c0 -2 -29 -83 -65 -181 -36 -98 -65 -182 -65 -187 0 -5
62 -9 140 -9 78 0 140 4 140 9 0 5 -29 89 -65 187 -36 98 -65 179 -65 181 0 2
-4 3 -10 3 -5 0 -10 -1 -10 -3z"/>
<path d="M17388 11354 c-5 -4 -8 -83 -8 -176 l0 -168 33 -2 c179 -9 267 52
267 185 0 114 -53 159 -195 165 -49 2 -93 1 -97 -4z"/>
<path d="M18058 11354 c-5 -4 -8 -82 -8 -174 l0 -167 38 -5 c60 -9 150 8 191
35 100 67 101 233 1 291 -25 15 -57 21 -125 24 -49 2 -93 1 -97 -4z"/>
<path d="M21325 10790 c-84 -22 -498 -188 -560 -225 -85 -49 -125 -126 -125
-240 0 -95 26 -199 97 -380 107 -277 216 -467 296 -515 152 -93 526 129 730
432 91 136 129 291 108 436 -29 199 -121 374 -234 446 -107 67 -187 79 -312
46z"/>
<path d="M9890 9051 c0 -25 -8 -34 -63 -64 -88 -48 -200 -97 -272 -118 -33
-10 -148 -47 -255 -83 -107 -36 -225 -73 -262 -82 -54 -13 -68 -20 -68 -35 0
-10 2 -19 5 -19 27 0 206 51 350 100 99 34 219 74 267 90 98 33 175 68 260
117 31 18 63 33 72 33 8 0 146 -139 306 -309 258 -274 294 -309 313 -302 12 5
22 13 22 19 0 5 -54 68 -120 138 -66 71 -194 207 -284 304 -192 206 -228 240
-253 240 -13 0 -18 -8 -18 -29z"/>
</g>
</svg>
