<svg xmlns="http://www.w3.org/2000/svg" viewBox="0 0 182.99 250.97"><defs><style>.cls-1{fill:#201e3c;}.cls-2{fill:#2b2b49;}.cls-3{fill:#59b55b;}.cls-4{fill:none;}.cls-5{fill:#e2e2e2;}</style></defs><g id="Layer_2" data-name="Layer 2"><g id="Layer_1-2" data-name="Layer 1"><path class="cls-1" d="M175.44,0H70.4L0,70.4v173A7.55,7.55,0,0,0,7.55,251H175.44a7.55,7.55,0,0,0,7.55-7.55V7.55A7.55,7.55,0,0,0,175.44,0Z"/><path class="cls-2" d="M62.85,70.4a7.55,7.55,0,0,0,7.55-7.55V0L0,70.4Z"/><path class="cls-3" d="M94.09,125.35c-.55-.2-1.09-.41-1.64-.63C93,124.94,93.54,125.15,94.09,125.35Z"/><path class="cls-3" d="M94.34,125.52c-.72-.31-1.43-.63-2.14-1C92.91,124.89,93.62,125.21,94.34,125.52Z"/><path class="cls-3" d="M93.34,125.07l-.13-.07Z"/><path class="cls-3" d="M93,125l.87.34-1.23-.5Z"/><path class="cls-4" d="M76.86,168.87v1.69A17.54,17.54,0,1,0,94.4,153h-2A17.55,17.55,0,0,0,76.86,168.87Z"/><path class="cls-3" d="M147,170.47c0-.17,0-.35,0-.52,0,.19,0,.37,0,.56Z"/><path class="cls-3" d="M146.63,164c.08.59.14,1.19.19,1.79C146.77,165.17,146.7,164.57,146.63,164Z"/><path class="cls-3" d="M146.89,166.61c0,.5.07,1,.09,1.49C147,167.6,146.92,167.11,146.89,166.61Z"/><path class="cls-3" d="M44.72,188a52.37,52.37,0,0,1-3-17.43v-3.49c-.07,1.13-.12,2.26-.12,3.4a52.71,52.71,0,0,0,29.65,47.4A52.8,52.8,0,0,1,44.72,188Z"/><path class="cls-3" d="M146.58,163.57c0,.14,0,.27,0,.41C146.61,163.84,146.6,163.71,146.58,163.57Z"/><path class="cls-3" d="M146.82,165.77c0,.28.05.56.07.84C146.87,166.33,146.85,166.05,146.82,165.77Z"/><path class="cls-5" d="M74.6,118.49v-2.83A35.07,35.07,0,0,0,39.5,80.57v84.25A52.74,52.74,0,0,1,74.6,118.49Z"/><path class="cls-3" d="M94.34,223.17A52.66,52.66,0,0,1,76.42,220l.44.17A52.61,52.61,0,0,0,147,170.56v-.05A52.7,52.7,0,0,1,94.34,223.17Z"/><path class="cls-3" d="M76.86,168.87c0,.53-.08,1.06-.08,1.6a17.53,17.53,0,0,0,5.16,12.44,17.49,17.49,0,0,1-5.08-12.35Z"/><path class="cls-3" d="M147,168.1c0,.61,0,1.23.05,1.85C147,169.33,147,168.71,147,168.1Z"/><path class="cls-4" d="M112,170.56A17.69,17.69,0,0,0,96.25,153H94.69a17.45,17.45,0,1,0,10.88,31.08,16.42,16.42,0,0,0,1.24-1.13A17.46,17.46,0,0,0,112,170.56Z"/><path class="cls-3" d="M146.69,176.48c-.05.47-.11.93-.18,1.4C146.58,177.41,146.64,177,146.69,176.48Z"/><path class="cls-3" d="M145.79,181.89l.09-.41Z"/><path class="cls-3" d="M145.56,158.11l0,.12c.19.82.37,1.65.53,2.48l0,.18c.17.89.31,1.78.43,2.68,0,.14,0,.27,0,.41.08.59.14,1.19.19,1.79,0,.28.05.56.07.84,0,.5.07,1,.09,1.49s0,1.23.05,1.85c0,.19,0,.37,0,.56,0,.84,0,1.68-.06,2.51q.06-1.26.06-2.55V83.21a34.87,34.87,0,0,0-34.9,34.9v2.75A52.8,52.8,0,0,1,145.56,158.11Z"/><path class="cls-3" d="M146.34,179c-.06.38-.13.75-.2,1.13C146.21,179.77,146.28,179.4,146.34,179Z"/><path class="cls-3" d="M146.93,173.81c0,.56-.08,1.12-.13,1.67C146.85,174.93,146.89,174.37,146.93,173.81Z"/><path class="cls-5" d="M147,173c0,.27,0,.53,0,.79C146.94,173.55,147,173.29,147,173Z"/><path class="cls-5" d="M146.8,175.48c0,.34-.07.67-.11,1C146.73,176.15,146.77,175.82,146.8,175.48Z"/><path class="cls-5" d="M146.51,177.88c0,.38-.11.76-.17,1.14C146.4,178.64,146.46,178.26,146.51,177.88Z"/><path class="cls-5" d="M115.07,218.71c-1,.41-1.94.79-2.93,1.14a52.36,52.36,0,1,1-4.5-100.12.84.84,0,0,1,.63.82v31.62a.85.85,0,0,1-.84.85H96.25A17.62,17.62,0,0,1,106.81,183a16.42,16.42,0,0,1-1.24,1.13,17.72,17.72,0,0,0,1.46-1.29,17.39,17.39,0,0,0,5.11-12.34V120.86a52.69,52.69,0,0,0-70.38,46.21v3.49a52.61,52.61,0,0,0,29.53,47.31l.12.06c.71.34,1.42.66,2.14,1,.41.18.82.34,1.23.5s1.08.44,1.64.64a52.73,52.73,0,0,0,69.37-38.15,53.31,53.31,0,0,1-1.68,5.91A52.51,52.51,0,0,1,115.07,218.71Z"/><path class="cls-5" d="M146.14,180.15c-.08.44-.16.89-.26,1.33C146,181,146.06,180.59,146.14,180.15Z"/><path class="cls-5" d="M146.14,180.15c.07-.38.14-.75.2-1.13s.12-.76.17-1.14.13-.93.18-1.4.08-.66.11-1c0-.55.09-1.11.13-1.67,0-.26,0-.52,0-.79,0-.83.06-1.67.06-2.51,0-.19,0-.37,0-.56,0-.62,0-1.24-.05-1.85s-.06-1-.09-1.49c0-.28,0-.56-.07-.84,0-.6-.11-1.2-.19-1.79,0-.14,0-.27,0-.41-.12-.9-.26-1.79-.43-2.68l0-.18c-.16-.83-.34-1.66-.53-2.48l0-.12a52.8,52.8,0,0,0-33.42-37.25v49.61A17.39,17.39,0,0,1,107,182.81a17.72,17.72,0,0,1-1.46,1.29A17.54,17.54,0,0,1,82,183l-.06-.06a17.53,17.53,0,0,1-5.16-12.44c0-.54,0-1.07.08-1.6A17.55,17.55,0,0,1,92.39,153a17.91,17.91,0,0,1,2-.12,17.18,17.18,0,0,1,1.91.12h11.18a.85.85,0,0,0,.84-.85V120.55a.84.84,0,0,0-.63-.82,52.35,52.35,0,1,0,4.5,100.12c1-.35,2-.73,2.93-1.14a52.51,52.51,0,0,0,29-30.91,53.31,53.31,0,0,0,1.68-5.91l.09-.41C146,181,146.06,180.59,146.14,180.15Z"/></g></g></svg>