<svg xmlns="http://www.w3.org/2000/svg" viewBox="0 0 1793.97 332.63"><defs><style>.cls-1{fill:#221f1f;}.cls-2{fill:#e82429;}.cls-3{fill:#006eaa;}.cls-4{fill:#005bb4;}</style></defs><g id="Layer_2" data-name="Layer 2"><g id="Layer_1-2" data-name="Layer 1"><path class="cls-1" d="M882.41.08V54.37H875V17L858.1,54.45,841.79,17V54.37h-7.46V.08h8.93L858.1,35.34,873.56.08Z"/><path class="cls-1" d="M908.17,54.53h-7.54V.08h7.54Z"/><path class="cls-1" d="M966.42.08V54.45h-8.54L934,13.36V54.45h-7.3V.08h8.62l23.93,42.1V.08Z"/><path class="cls-1" d="M1022.16,0V35.34a19.5,19.5,0,0,1-35.73,10.33,20.05,20.05,0,0,1-3.19-10.33V0h7.46V35a12,12,0,1,0,23.92,0V0Z"/><path class="cls-1" d="M1077.27,0V7.22L1059,7.15l.16,47.38h-7.69l.08-47.38h-18V0Z"/><path class="cls-1" d="M1120.9,47.23v7.22h-32.39V.08h32v7.3H1096v16.7h19.5V31.3H1096V47.23Z"/><path class="cls-1" d="M849.76,123.47c-6.76,0-13-3.18-16.31-7.76v-.16l3.1-5.28c2.41,3.5,7.07,6.21,13.29,6.6h2c5.36,0,9.79-4,9.79-9.32s-4.19-7.53-9.79-8.39a35.91,35.91,0,0,0-3.65-.54c-7.69-1.48-14.6-6-14.6-14.14a14.92,14.92,0,0,1,14.6-15h1.17c5.36,0,11.11,2.33,14,6l-3.5,6.45c-3-3.34-5.9-5.21-10.48-5.44H848.2c-4.11,0-7.53,3.73-7.53,8,0,4.12,2.87,6.37,7.53,7,1.95.24,3.27.31,3.81.39,9.24,1.24,16.23,6.53,16.23,15.69s-7.38,15.69-16.39,15.92Z"/><path class="cls-1" d="M915.89,118.66a26.69,26.69,0,0,1-15.62,5,27.19,27.19,0,0,1,0-54.37,26.63,26.63,0,0,1,15.62,4.89l-3.42,7.15a18.6,18.6,0,0,0-12.2-4.2,19.38,19.38,0,1,0,0,38.76,19.46,19.46,0,0,0,12.43-4.42Z"/><path class="cls-1" d="M963.75,69.26v54.29h-7.54V100.87H931.43v22.68H923.9V69.26h7.53V94h24.78V69.26Z"/><path class="cls-1" d="M1024.15,96.29c0,15-11.42,27.26-26.49,27.26-14.29,0-25.79-12.27-25.79-27.26s11.5-27.11,25.79-27.11C1012.73,69.18,1024.15,81.38,1024.15,96.29Zm-7.46,0c0-10.8-8.16-19.58-19-19.58-10.18,0-18.33,8.78-18.33,19.58s8.15,19.81,18.33,19.81C1008.53,116.1,1016.69,107.24,1016.69,96.29Z"/><path class="cls-1" d="M1082.47,96.29c0,15-11.42,27.26-26.49,27.26-14.29,0-25.79-12.27-25.79-27.26s11.5-27.11,25.79-27.11C1071.05,69.18,1082.47,81.38,1082.47,96.29Zm-7.46,0c0-10.8-8.15-19.58-19-19.58-10.17,0-18.33,8.78-18.33,19.58s8.16,19.81,18.33,19.81C1066.86,116.1,1075,107.24,1075,96.29Z"/><path class="cls-1" d="M1098,116.25h22.84v7.38h-30.22V69.26H1098Z"/><path class="cls-1" d="M705.8.84V123.43H689.7V18.17H673.07V.84Z"/><path class="cls-2" d="M810.45,28.22C804.8,13.35,790.14,2.35,774.17.2V16.68c7,1.47,14.32,5.57,18.23,11.25l-27.53,29.6,9.82,9.14,22.7-24.41h0Z"/><path class="cls-1" d="M797.48,55.18V79c0,15.74-12,28.48-27.6,28.48-15,0-27.59-12.74-27.59-28.48V44.36A28,28,0,0,1,766,16.63V.18C744.75,3,726.54,21.69,726.54,44.36V79c0,24.59,19.46,44.76,43.34,44.76,24.06,0,43.52-20.17,43.52-44.76V44.36a47,47,0,0,0-.41-5.85Z"/><path class="cls-3" d="M387,199.31h33l26.18,69,27.72-69h33.38l19.51,129H493.27l-9.41-74.28h-.34l-31,74.28H439.19l-29.6-74.28h-.35l-10.78,74.28H365.09Z"/><path class="cls-3" d="M677.25,261.43c0,41.76-30,71.2-71.37,71.2s-71.36-29.44-71.36-71.2c0-39,34.22-66.4,71.36-66.4S677.25,222.41,677.25,261.43Zm-107.82.17c0,22.25,16.43,38.51,36.45,38.51s36.45-16.26,36.45-38.51c0-17.79-16.42-34.05-36.45-34.05S569.43,243.81,569.43,261.6Z"/><path class="cls-3" d="M692.82,199.31H740.4c35.94,0,65.54,28.24,65.54,64.52s-29.78,64.52-65.54,64.52H692.82Zm33.54,100.63h7.53c20,0,37.14-10.95,37.14-36.11,0-23.1-15.23-36.11-36.79-36.11h-7.88Z"/><path class="cls-3" d="M855.06,227.72v21.56h37.82v28.41H855.06v22.25h39.88v28.41H821.52v-129h73.42v28.41Z"/><path class="cls-3" d="M949.19,299.94H989.4v28.41H915.64v-129h33.55Z"/><path class="cls-3" d="M1110.4,328.35h-33.55V227.72h-27.72V199.31h89v28.41H1110.4Z"/><path class="cls-3" d="M1183.81,227.72v21.56h37.83v28.41h-37.83v22.25h39.88v28.41h-73.42v-129h73.42v28.41Z"/><path class="cls-3" d="M1315.25,232.51c-6.16-5.13-14-8.55-22.25-8.55-6.16,0-14.38,3.59-14.38,10.78,0,7.53,9.08,10.44,14.89,12.32l8.56,2.56c18,5.31,31.83,14.38,31.83,35.26,0,12.84-3.08,26-13.35,34.74-10.09,8.56-23.61,12.15-36.62,12.15a79.63,79.63,0,0,1-45.35-14.72L1253,290c8.39,7.36,18.31,13.35,29.78,13.35,7.87,0,16.26-3.93,16.26-13,0-9.42-13.18-12.67-20.37-14.72-21-6-34.91-11.47-34.91-36.45,0-26.19,18.66-43.3,44.5-43.3a88.33,88.33,0,0,1,40.39,10.61Z"/><path class="cls-3" d="M1401.16,328.35h-33.54V227.72h-27.73V199.31h89v28.41h-27.72Z"/><rect class="cls-4" y="252.92" width="297.45" height="21.82"/><rect class="cls-4" x="1496.52" y="252.92" width="297.45" height="21.82"/><path class="cls-1" d="M882.44.91v54.2H875V17.82L858.17,55.19,841.89,17.82V55.11h-7.45V.91h8.92l14.81,35.2L873.6.91Z"/><path class="cls-1" d="M908.15,55.26h-7.52V.91h7.52Z"/><path class="cls-1" d="M966.3.91V55.19h-8.53l-23.8-41v41h-7.29V.91h8.6l23.88,42V.91Z"/><path class="cls-1" d="M1021.93.84V36.11a19.46,19.46,0,0,1-35.67,10.31,20.07,20.07,0,0,1-3.17-10.31V.84h7.44V35.73a11.94,11.94,0,1,0,23.88,0V.84Z"/><path class="cls-1" d="M1076.94.84V8.05L1058.72,8l.15,47.29h-7.67L1051.27,8h-17.91V.84Z"/><path class="cls-1" d="M1120.49,48v7.21h-32.33V.91h31.95V8.2h-24.5V24.87h19.46v7.21h-19.46V48Z"/><path class="cls-1" d="M849.84,124.08c-6.74,0-12.94-3.17-16.28-7.75v-.15l3.1-5.28c2.41,3.49,7.06,6.21,13.26,6.59h2c5.35,0,9.77-3.95,9.77-9.3s-4.19-7.52-9.77-8.37c-1.17-.31-2.17-.31-3.65-.55-7.67-1.47-14.57-6-14.57-14.11a14.89,14.89,0,0,1,14.57-15h1.17c5.35,0,11.08,2.33,13.95,6l-3.49,6.43c-3-3.33-5.89-5.19-10.46-5.42h-1.17c-4.11,0-7.52,3.72-7.52,8s2.87,6.36,7.52,7c1.94.23,3.26.31,3.8.39,9.23,1.24,16.21,6.51,16.21,15.66s-7.37,15.66-16.36,15.89Z"/><path class="cls-1" d="M915.85,119.28a26.65,26.65,0,0,1-15.58,5,27.14,27.14,0,1,1,0-54.27,26.59,26.59,0,0,1,15.58,4.88L912.44,82a18.56,18.56,0,0,0-12.17-4.18,19.35,19.35,0,1,0,12.4,34.27Z"/><path class="cls-1" d="M963.62,70v54.19H956.1V101.52H931.37v22.64h-7.52V70h7.52V94.7H956.1V70Z"/><path class="cls-1" d="M1023.92,97c0,15-11.4,27.21-26.44,27.21-14.27,0-25.74-12.25-25.74-27.21s11.47-27.06,25.74-27.06C1012.52,69.89,1023.92,82.06,1023.92,97Zm-7.45,0c0-10.78-8.14-19.54-19-19.54-10.16,0-18.3,8.76-18.3,19.54s8.14,19.77,18.3,19.77C1008.33,116.72,1016.47,107.88,1016.47,97Z"/><path class="cls-1" d="M1082.13,97c0,15-11.4,27.21-26.44,27.21-14.26,0-25.74-12.25-25.74-27.21s11.48-27.06,25.74-27.06C1070.73,69.89,1082.13,82.06,1082.13,97Zm-7.44,0c0-10.78-8.14-19.54-19-19.54-10.16,0-18.3,8.76-18.3,19.54s8.14,19.77,18.3,19.77C1066.55,116.72,1074.69,107.88,1074.69,97Z"/><path class="cls-1" d="M1097.62,116.87h22.8v7.37h-30.16V70h7.36Z"/><path class="cls-1" d="M706.15,1.67V124H690.08V19h-16.6V1.67Z"/><path class="cls-2" d="M810.61,29C805,14.16,790.34,3.18,774.39,1V17.49c7,1.46,14.3,5.55,18.2,11.23L765.11,58.26l9.81,9.12L797.58,43h0Z"/><path class="cls-1" d="M797.66,55.91V79.72c0,15.72-12,28.43-27.54,28.43-15,0-27.55-12.71-27.55-28.43V45.11a27.94,27.94,0,0,1,23.7-27.67V1c-21.24,2.8-39.42,21.48-39.42,44.1V79.72c0,24.54,19.43,44.68,43.27,44.68,24,0,43.44-20.14,43.44-44.68V45.11a45.1,45.1,0,0,0-.42-5.84Z"/></g></g></svg>