<svg id="Layer_1" data-name="Layer 1" xmlns="http://www.w3.org/2000/svg" viewBox="0 0 873.49 567.11"><defs><style>.cls-1{fill:#6545e6;}.cls-2,.cls-9{fill:#fdc00f;}.cls-3{fill:#16b6c6;}.cls-13,.cls-4,.cls-5,.cls-7{fill:#fff;}.cls-4{opacity:0.3;}.cls-5,.cls-7{font-size:45.87px;font-family:BarlowCondensed-Light, Barlow Condensed;font-weight:300;}.cls-6{letter-spacing:-0.01em;}.cls-7{letter-spacing:0em;}.cls-8{letter-spacing:-0.02em;}.cls-9{font-size:60px;font-family:BarlowCondensed-SemiBold, Barlow Condensed;font-weight:600;}.cls-10{letter-spacing:-0.02em;}.cls-11{letter-spacing:0em;}.cls-12{fill:#2f1f91;}.cls-13{font-size:30.58px;font-family:BarlowCondensed-Regular, Barlow Condensed;}</style></defs><rect class="cls-1" width="873.49" height="567.11"/><path class="cls-2" d="M436.75,245.06c-22.13,0-34.07-54.84-34.07-106.42S414.62,32.22,436.75,32.22s34.07,54.83,34.07,106.42S458.88,245.06,436.75,245.06Zm0-205.83c-12.8,0-27.06,40.82-27.06,99.41s14.26,99.41,27.06,99.41,27.06-40.83,27.06-99.41S449.55,39.23,436.75,39.23Z"/><path class="cls-2" d="M509.07,200c-21.06,0-55.3-12.22-89.35-31.88-24.1-13.91-45.17-29.81-59.34-44.76-15.33-16.18-20.79-29.3-15.79-38,3.13-5.42,9.8-8.17,19.84-8.17,21.06,0,55.3,12.22,89.35,31.88,24.1,13.91,45.17,29.81,59.34,44.76,15.33,16.18,20.79,29.3,15.79,38C525.78,197.27,519.11,200,509.07,200ZM364.43,84.26c-5.05,0-11.54.81-13.77,4.67-3.15,5.45,2.39,16.52,14.8,29.63,13.73,14.48,34.24,29.93,57.76,43.51,33,19.08,65.95,30.94,85.85,30.94,5.05,0,11.54-.81,13.77-4.67,3.15-5.45-2.39-16.52-14.81-29.62-13.72-14.48-34.23-29.94-57.75-43.52C417.23,96.12,384.33,84.26,364.43,84.26Z"/><path class="cls-2" d="M364.42,200c-10,0-16.7-2.75-19.83-8.17-11.07-19.17,30.45-56.93,75.13-82.72,34-19.66,68.29-31.88,89.36-31.88,10,0,16.7,2.75,19.83,8.17,5,8.66-.46,21.79-15.79,38-14.17,15-35.25,30.85-59.34,44.76C419.73,187.8,385.48,200,364.42,200ZM509.08,84.26c-19.91,0-52.81,11.86-85.86,30.94-50.73,29.29-79,62.06-72.56,73.15,2.22,3.85,8.71,4.66,13.76,4.66,19.9,0,52.8-11.85,85.86-30.94,23.52-13.58,44-29,57.75-43.51,12.42-13.11,18-24.18,14.81-29.63C520.61,85.07,514.13,84.26,509.08,84.26Z"/><path class="cls-3" d="M414.71,138.64a22,22,0,1,1,22,22A22,22,0,0,1,414.71,138.64Z"/><path class="cls-4" d="M418.66,135.29A14.3,14.3,0,1,1,433,149.58,14.29,14.29,0,0,1,418.66,135.29Z"/><path class="cls-3" d="M381.18,81.12a10.35,10.35,0,1,1-10.35-10.35A10.34,10.34,0,0,1,381.18,81.12Z"/><path class="cls-3" d="M421.82,196.52a10.35,10.35,0,1,1-10.34-10.35A10.34,10.34,0,0,1,421.82,196.52Z"/><path class="cls-3" d="M488.92,86.41a10.35,10.35,0,1,1-10.35-10.34A10.35,10.35,0,0,1,488.92,86.41Z"/><path class="cls-4" d="M484,84.42a7,7,0,1,1-7-7A7,7,0,0,1,484,84.42Z"/><path class="cls-4" d="M376.43,79.37a7,7,0,1,1-7-7.05A7,7,0,0,1,376.43,79.37Z"/><path class="cls-4" d="M416.52,195.08a7,7,0,1,1-7-7A7,7,0,0,1,416.52,195.08Z"/><text class="cls-5" transform="translate(301.55 315.45)">PH<tspan class="cls-6" x="41.55" y="0">Y</tspan><tspan x="60.08" y="0">SICS 2</tspan></text><text class="cls-7" transform="translate(456.21 300.18) scale(0.58)">nd</text><text class="cls-5" transform="translate(478.54 315.45)"> <tspan class="cls-8" x="9.17" y="0">P</tspan><tspan x="28.07" y="0">APER</tspan></text><text class="cls-9" transform="translate(95.47 449.51)">M<tspan class="cls-10" x="32.28" y="0">A</tspan><tspan class="cls-11" x="58.68" y="0">GNETIC EFFECTS OF ELECTRIC</tspan><tspan x="93.42" y="72">CURRENT &amp; M</tspan><tspan class="cls-10" x="379.62" y="72">A</tspan><tspan x="406.02" y="72">GNETISM</tspan></text><rect class="cls-12" x="342.63" y="329.97" width="188.24" height="43.95"/><text class="cls-13" transform="translate(380.48 361.75)">CHAPTER 4</text></svg>