<svg id="Layer_1" data-name="Layer 1" xmlns="http://www.w3.org/2000/svg" viewBox="0 0 873.49 567.11"><defs><style>.cls-1{fill:#6545e6;}.cls-2,.cls-9{fill:#fdc00f;}.cls-3{fill:#16b6c6;}.cls-15,.cls-4,.cls-5,.cls-7{fill:#fff;}.cls-4{opacity:0.3;}.cls-5,.cls-7{font-size:45.87px;font-family:BarlowCondensed-Light, Barlow Condensed;font-weight:300;}.cls-6{letter-spacing:-0.01em;}.cls-7{letter-spacing:0em;}.cls-8{letter-spacing:-0.02em;}.cls-9{font-size:60px;font-family:BarlowCondensed-SemiBold, Barlow Condensed;font-weight:600;}.cls-10{letter-spacing:0em;}.cls-11{letter-spacing:0em;}.cls-12{letter-spacing:0em;}.cls-13{letter-spacing:-0.02em;}.cls-14{fill:#2f1f91;}.cls-15{font-size:30.58px;font-family:BarlowCondensed-Regular, Barlow Condensed;}</style></defs><rect class="cls-1" width="873.49" height="567.11"/><path class="cls-2" d="M436.75,279.22c-22.13,0-34.07-54.83-34.07-106.42S414.62,66.38,436.75,66.38s34.07,54.83,34.07,106.42S458.88,279.22,436.75,279.22Zm0-205.83c-12.8,0-27.06,40.83-27.06,99.41s14.26,99.41,27.06,99.41,27.06-40.82,27.06-99.41S449.55,73.39,436.75,73.39Z"/><path class="cls-2" d="M509.07,234.19c-21.06,0-55.3-12.22-89.35-31.88-24.1-13.91-45.17-29.81-59.34-44.77-15.33-16.17-20.79-29.29-15.79-37.95,3.13-5.42,9.8-8.17,19.84-8.17,21.06,0,55.3,12.21,89.35,31.88,24.1,13.91,45.17,29.8,59.34,44.76,15.33,16.17,20.79,29.3,15.79,37.95C525.78,231.44,519.11,234.19,509.07,234.19ZM364.43,118.43c-5.05,0-11.54.81-13.77,4.66-3.15,5.45,2.39,16.53,14.8,29.63,13.73,14.48,34.24,29.94,57.76,43.52,33,19.08,65.95,30.94,85.85,30.94,5.05,0,11.54-.81,13.77-4.68C526,217.06,520.45,206,508,192.88,494.31,178.4,473.8,163,450.28,149.37,417.23,130.28,384.33,118.43,364.43,118.43Z"/><path class="cls-2" d="M364.42,234.19c-10,0-16.7-2.75-19.83-8.17-11.07-19.18,30.45-56.93,75.13-82.72,34-19.67,68.29-31.88,89.36-31.88,10,0,16.7,2.75,19.83,8.17,5,8.66-.46,21.78-15.79,38C499,172.5,477.87,188.4,453.78,202.31,419.73,222,385.48,234.19,364.42,234.19ZM509.08,118.43c-19.91,0-52.81,11.85-85.86,30.94-50.73,29.29-79,62-72.56,73.14,2.22,3.86,8.71,4.67,13.76,4.67,19.9,0,52.8-11.86,85.86-31,23.52-13.57,44-29,57.75-43.51,12.42-13.1,18-24.18,14.81-29.63C520.61,119.24,514.13,118.43,509.08,118.43Z"/><path class="cls-3" d="M414.71,172.8a22,22,0,1,1,22,22A22,22,0,0,1,414.71,172.8Z"/><path class="cls-4" d="M418.66,169.46A14.3,14.3,0,1,1,433,183.75,14.29,14.29,0,0,1,418.66,169.46Z"/><path class="cls-3" d="M381.18,115.28a10.35,10.35,0,1,1-10.35-10.34A10.35,10.35,0,0,1,381.18,115.28Z"/><path class="cls-3" d="M421.82,230.68a10.35,10.35,0,1,1-10.34-10.34A10.34,10.34,0,0,1,421.82,230.68Z"/><path class="cls-3" d="M488.92,120.58a10.35,10.35,0,1,1-10.35-10.35A10.34,10.34,0,0,1,488.92,120.58Z"/><path class="cls-4" d="M484,118.58a7,7,0,1,1-7-7A7,7,0,0,1,484,118.58Z"/><path class="cls-4" d="M376.43,113.53a7,7,0,1,1-7-7A7,7,0,0,1,376.43,113.53Z"/><path class="cls-4" d="M416.52,229.25a7,7,0,1,1-7-7A7,7,0,0,1,416.52,229.25Z"/><text class="cls-5" transform="translate(301.55 349.62)">PH<tspan class="cls-6" x="41.55" y="0">Y</tspan><tspan x="60.08" y="0">SICS 2</tspan></text><text class="cls-7" transform="translate(456.21 334.35) scale(0.58)">nd</text><text class="cls-5" transform="translate(478.54 349.62)"> <tspan class="cls-8" x="9.17" y="0">P</tspan><tspan x="28.07" y="0">APER</tspan></text><text class="cls-9" transform="translate(104.92 483.68)"><tspan class="cls-10">B</tspan><tspan class="cls-11" x="27.48" y="0">EGINNING OF MO</tspan><tspan class="cls-12" x="364.37" y="0">D</tspan><tspan x="392.45" y="0">ERN PH</tspan><tspan class="cls-13" x="544.67" y="0">Y</tspan><tspan x="570.71" y="0">SICS</tspan></text><rect class="cls-14" x="342.63" y="364.14" width="188.24" height="43.95"/><text class="cls-15" transform="translate(380.38 395.91)">CHAPTER 8</text></svg>