<svg xmlns="http://www.w3.org/2000/svg" width="873.49" height="567.11" viewBox="0 0 873.49 567.11"><title>Chapter 1</title><rect width="873.49" height="567.11" style="fill:#6545e6"/><path d="M436.75,279.22c-22.13,0-34.07-54.83-34.07-106.42S414.62,66.38,436.75,66.38s34.07,54.83,34.07,106.42S458.88,279.22,436.75,279.22Zm0-205.83c-12.8,0-27.06,40.83-27.06,99.41s14.26,99.41,27.06,99.41,27.06-40.82,27.06-99.41S449.55,73.39,436.75,73.39Z" style="fill:#fdc00f"/><path d="M509.07,234.19c-21.06,0-55.3-12.22-89.35-31.88-24.1-13.91-45.17-29.81-59.34-44.77-15.33-16.17-20.79-29.29-15.79-37.95,3.13-5.42,9.8-8.17,19.84-8.17,21.06,0,55.3,12.21,89.35,31.88,24.1,13.91,45.17,29.8,59.34,44.76,15.33,16.17,20.79,29.3,15.79,37.95C525.78,231.44,519.11,234.19,509.07,234.19ZM364.43,118.43c-5.05,0-11.54.81-13.77,4.66-3.15,5.45,2.39,16.53,14.8,29.63,13.73,14.48,34.24,29.94,57.76,43.52,33,19.08,65.95,30.94,85.85,30.94,5.05,0,11.54-.81,13.77-4.68C526,217.06,520.45,206,508,192.88,494.31,178.4,473.8,163,450.28,149.37,417.23,130.28,384.33,118.43,364.43,118.43Z" style="fill:#fdc00f"/><path d="M364.42,234.19c-10,0-16.7-2.75-19.83-8.17-11.07-19.18,30.45-56.93,75.13-82.72,34-19.67,68.29-31.88,89.36-31.88,10,0,16.7,2.75,19.83,8.17,5,8.66-.46,21.78-15.79,38C499,172.5,477.87,188.4,453.78,202.31,419.73,222,385.48,234.19,364.42,234.19ZM509.08,118.43c-19.91,0-52.81,11.85-85.86,30.94-50.73,29.29-79,62-72.56,73.14,2.22,3.86,8.71,4.67,13.76,4.67,19.9,0,52.8-11.86,85.86-31,23.52-13.57,44-29,57.75-43.51,12.42-13.1,18-24.18,14.81-29.63C520.61,119.24,514.13,118.43,509.08,118.43Z" style="fill:#fdc00f"/><path d="M414.71,172.8a22,22,0,1,1,22,22A22,22,0,0,1,414.71,172.8Z" style="fill:#16b6c6"/><path d="M418.66,169.46A14.3,14.3,0,1,1,433,183.75,14.29,14.29,0,0,1,418.66,169.46Z" style="fill:#fff;opacity:0.30000000000000004"/><path d="M381.18,115.28a10.35,10.35,0,1,1-10.35-10.34A10.35,10.35,0,0,1,381.18,115.28Z" style="fill:#16b6c6"/><path d="M421.82,230.68a10.35,10.35,0,1,1-10.34-10.34A10.34,10.34,0,0,1,421.82,230.68Z" style="fill:#16b6c6"/><path d="M488.92,120.58a10.35,10.35,0,1,1-10.35-10.35A10.34,10.34,0,0,1,488.92,120.58Z" style="fill:#16b6c6"/><path d="M484,118.58a7,7,0,1,1-7-7A7,7,0,0,1,484,118.58Z" style="fill:#fff;opacity:0.30000000000000004"/><path d="M376.43,113.53a7,7,0,1,1-7-7A7,7,0,0,1,376.43,113.53Z" style="fill:#fff;opacity:0.30000000000000004"/><path d="M416.52,229.25a7,7,0,1,1-7-7A7,7,0,0,1,416.52,229.25Z" style="fill:#fff;opacity:0.30000000000000004"/><text transform="translate(301.55 349.62)" style="font-size:45.866981506347656px;fill:#fff;font-family:BarlowCondensed-Light, Barlow Condensed;font-weight:300">PH<tspan x="41.55" y="0" style="letter-spacing:-0.006983509476324948em">Y</tspan><tspan x="60.08" y="0">SICS 2</tspan></text><text transform="translate(456.21 334.35) scale(0.58)" style="font-size:45.866981506347656px;fill:#fff;font-family:BarlowCondensed-Light, Barlow Condensed;font-weight:300;letter-spacing:-0.000036520046777174835em">nd</text><text transform="translate(478.54 349.62)" style="font-size:45.866981506347656px;fill:#fff;font-family:BarlowCondensed-Light, Barlow Condensed;font-weight:300"> <tspan x="9.17" y="0" style="letter-spacing:-0.023973877043725278em">P</tspan><tspan x="28.07" y="0">APER</tspan></text><text transform="translate(246.85 483.68)" style="font-size:60px;fill:#fdc00f;font-family:BarlowCondensed-SemiBold, Barlow Condensed;font-weight:600">T<tspan x="27.12" y="0" style="letter-spacing:-0.003987630208333333em">H</tspan><tspan x="55.5" y="0">ERMO</tspan><tspan x="169.56" y="0" style="letter-spacing:-0.026993815104166666em">D</tspan><tspan x="196.26" y="0" style="letter-spacing:-0.012980143229166666em">Y</tspan><tspan x="222.84" y="0">NAMICS</tspan></text><rect x="342.63" y="364.14" width="188.24" height="43.95" style="fill:#2f1f91"/><text transform="translate(382.91 395.91)" style="font-size:30.57798957824707px;fill:#fff;font-family:BarlowCondensed-Regular, Barlow Condensed">CHAPTER 1</text></svg>