<svg height="512" viewBox="0 0 512 512" width="512" xmlns="http://www.w3.org/2000/svg" xmlns:xlink="http://www.w3.org/1999/xlink"><linearGradient id="New_Gradient_Swatch_8" gradientTransform="translate(5.49 -77.255)" gradientUnits="userSpaceOnUse" x1="106.51" x2="218.526" y1="221.255" y2="221.255"><stop offset="0" stop-color="#f7d1d1"/><stop offset="1" stop-color="#fcf0f0"/></linearGradient><linearGradient id="New_Gradient_Swatch_7" gradientUnits="userSpaceOnUse" x1="80.686" x2="447.314" y1="439.314" y2="72.686"><stop offset="0" stop-color="#816a6a"/><stop offset="1" stop-color="#9d8b8b"/></linearGradient><linearGradient id="New_Gradient_Swatch_12" gradientUnits="userSpaceOnUse" x1="184.354" x2="343.646" y1="128.311" y2="-30.981"><stop offset="0" stop-color="#c7bdbd"/><stop offset="1" stop-color="#f1eeee"/></linearGradient><linearGradient id="New_Gradient_Swatch_12-2" x1="178.354" x2="349.646" xlink:href="#New_Gradient_Swatch_12" y1="536.981" y2="365.689"/><linearGradient id="New_Gradient_Swatch_21" gradientUnits="userSpaceOnUse" x1="194.118" x2="329.882" y1="281.882" y2="146.118"><stop offset="0" stop-color="#f4c361"/><stop offset="1" stop-color="#f7d796"/></linearGradient><linearGradient id="New_Gradient_Swatch_8-2" gradientTransform="translate(-40.029 30.64)" x1="143.029" x2="255.046" xlink:href="#New_Gradient_Swatch_8" y1="192.36" y2="192.36"/><linearGradient id="New_Gradient_Swatch_8-3" gradientTransform="translate(27.853 58.757)" x1="75.147" x2="187.163" xlink:href="#New_Gradient_Swatch_8" y1="260.243" y2="260.243"/><linearGradient id="New_Gradient_Swatch_8-4" gradientTransform="translate(87.735 90.189)" x1="7.265" x2="119.281" xlink:href="#New_Gradient_Swatch_8" y1="316.811" y2="316.811"/><linearGradient id="New_Gradient_Swatch_8-5" x1="312.426" x2="704.484" xlink:href="#New_Gradient_Swatch_8" y1="472.426" y2="80.369"/><g id="_22-mobile" data-name="22-mobile"><g id="linear_color" data-name="linear color"><rect fill="url(#New_Gradient_Swatch_8)" height="225.054" rx="32" transform="matrix(.707 -.707 .707 .707 -59.647 144)" width="64" x="112" y="31.473"/><g id="color"><rect fill="url(#New_Gradient_Swatch_7)" height="480" rx="16" width="272" x="128" y="16"/><path d="m384 16h-240a16 16 0 0 0 -16 16v39.956h272v-39.956a16 16 0 0 0 -16-16z" fill="url(#New_Gradient_Swatch_12)"/><path d="m128 480a16 16 0 0 0 16 16h240a16 16 0 0 0 16-16v-63.957h-272z" fill="url(#New_Gradient_Swatch_12-2)"/></g><circle cx="262" cy="214" fill="url(#New_Gradient_Swatch_21)" r="96"/><rect fill="url(#New_Gradient_Swatch_8-2)" height="128" rx="32" transform="matrix(.707 -.707 .707 .707 -118.144 160.775)" width="64" x="103" y="159"/><rect fill="url(#New_Gradient_Swatch_8-3)" height="128" rx="32" transform="matrix(.707 -.707 .707 .707 -186.026 188.892)" width="64" x="103" y="255"/><rect fill="url(#New_Gradient_Swatch_8-4)" height="128" rx="32" transform="matrix(.707 -.707 .707 .707 -250.595 209.01)" width="64" x="95" y="343"/><path d="m464 176c-32 0-64 16-64 64v80l-38.4 28.8a64 64 0 0 0 -25.6 51.2v96h128z" fill="url(#New_Gradient_Swatch_8-5)"/><path d="m290.043 446.021h-50.956a10 10 0 1 0 0 20h50.956a10 10 0 0 0 0-20z"/><path d="m464 166c-20.163 0-37.592 5.643-50.4 16.317-1.181.985-2.387 2.076-3.6 3.267v-153.584a26.076 26.076 0 0 0 -26-26h-240a26.076 26.076 0 0 0 -26 26v26.6l-1.239-1.239a42 42 0 0 0 -59.4 59.4l43.274 43.274a42.017 42.017 0 0 0 -17.959 70.035l24.616 24.616a41.993 41.993 0 0 0 -24.616 71.384l16.614 16.617a41.993 41.993 0 0 0 -24.616 71.384l43.326 43.329v22.6a26.029 26.029 0 0 0 26 26h192a10 10 0 0 0 10-10v-96a54.26 54.26 0 0 1 21.6-43.2l38.4-28.8a10.105 10.105 0 0 0 4-8v-80c0-39.827 24.31-50.935 44-53.4v309.4a10 10 0 0 0 20 0v-320a10 10 0 0 0 -10-10zm-320-140h240a6.006 6.006 0 0 1 6 6v29.956h-252v-29.956a6.006 6.006 0 0 1 6-6zm-78.945 61.06c-.2-19.372 24.011-29.385 37.564-15.559l15.381 15.382v62.235l-46.5-46.5a21.857 21.857 0 0 1 -6.445-15.558zm31.761 97.756c8.19-8.535 22.924-8.535 31.113 0l45.255 45.255c19.873 21.343-9.852 50.993-31.113 31.113l-45.255-45.255a22.027 22.027 0 0 1 0-31.113zm90.51 31.113-10.869-10.87a86.034 86.034 0 1 1 17.543 61.57 42.072 42.072 0 0 0 -6.674-50.7zm-90.51 64.887c8.19-8.535 22.924-8.535 31.113 0l45.255 45.255c19.873 21.343-9.852 50.993-31.113 31.113l-45.255-45.255a22.027 22.027 0 0 1 0-31.113zm-8 88c8.19-8.535 22.924-8.535 31.113 0l45.255 45.255c19.873 21.343-9.852 50.993-31.113 31.113l-45.255-45.255a22.027 22.027 0 0 1 0-31.113zm49.184 111.184v-10a42.155 42.155 0 0 0 11.627 1.633 41.961 41.961 0 0 0 41.82-45.588h134.553v59.955h-182a6.006 6.006 0 0 1 -6-6zm217.6-139.2a74.353 74.353 0 0 0 -29.6 59.2v6.04h-141.629a41.973 41.973 0 0 0 -5.045-6.111l-16.616-16.616a41.993 41.993 0 0 0 24.616-71.384l-24.616-24.616a41.541 41.541 0 0 0 17.3-6.143 105.966 105.966 0 1 0 -20.767-93.326s-19.825-19.644-21.243-20.744v-85.144h252v233.044z"/><path d="m253 224h17a14.509 14.509 0 0 1 0 29h-25.209c-3.493.08-6-3.312-5.488-6.647a10 10 0 0 0 -20-.358l-.019 1.036a25.509 25.509 0 0 0 25.507 25.969h7.209v6a10 10 0 0 0 20 0v-6.063a34.516 34.516 0 0 0 -2-68.937h-17a14 14 0 0 1 0-28h24.811q5.283.441 5.5 5.744a10 10 0 0 0 19.982.86 25.508 25.508 0 0 0 -25.482-26.604h-5.811v-6a10 10 0 0 0 -20 0v6.025a33.995 33.995 0 0 0 1 67.975z"/></g></g></svg>