<svg width="64" height="64" viewBox="0 0 64 64" fill="none" xmlns="http://www.w3.org/2000/svg">
<rect width="63.8367" height="63.8367" rx="5" fill="#FFF2CE"/>
<path d="M22.8991 26.3665C24.8152 26.3665 26.3685 24.8132 26.3685 22.8971C26.3685 20.981 24.8152 19.4277 22.8991 19.4277C20.983 19.4277 19.4297 20.981 19.4297 22.8971C19.4297 24.8132 20.983 26.3665 22.8991 26.3665Z" fill="#FFC014"/>
<path d="M25.013 37.2947V31.657C25.013 30.3677 25.5314 29.198 26.3695 28.3389C25.8655 27.9729 25.2473 27.7539 24.5773 27.7539H21.0923C19.4108 27.7539 18.043 29.1156 18.043 30.7896V34.259C18.043 34.4234 18.1362 34.5734 18.2839 34.6471L19.8042 35.4039L20.222 41.229C20.2385 41.4558 20.4284 41.6315 20.6567 41.6315H25.013C25.2412 41.6315 25.4312 41.4558 25.4477 41.2286L25.6498 38.4106C25.2648 38.1803 25.013 37.7614 25.013 37.2947Z" fill="#FFC014"/>
<path d="M40.942 26.3665C42.8581 26.3665 44.4114 24.8132 44.4114 22.8971C44.4114 20.981 42.8581 19.4277 40.942 19.4277C39.026 19.4277 37.4727 20.981 37.4727 22.8971C37.4727 24.8132 39.026 26.3665 40.942 26.3665Z" fill="#FFC014"/>
<path d="M38.8292 37.2947V31.657C38.8292 30.3677 38.3108 29.198 37.4727 28.3389C37.9767 27.9729 38.5948 27.7539 39.2648 27.7539H42.7498C44.4313 27.7539 45.7992 29.1156 45.7992 30.7896V34.259C45.7992 34.4234 45.706 34.5734 45.5583 34.6471L44.038 35.4039L43.6202 41.229C43.6036 41.4558 43.4137 41.6315 43.1854 41.6315H38.8292C38.6009 41.6315 38.411 41.4558 38.3944 41.2286L38.1923 38.4106C38.5774 38.1803 38.8292 37.7614 38.8292 37.2947Z" fill="#FFC014"/>
<path d="M33.6262 27.7539H30.2102C28.0914 27.7539 26.3672 29.5751 26.3672 31.8131V37.6764C26.3672 37.8915 26.5107 38.0764 26.7105 38.1184L28.5235 38.5013L28.9301 45.3717C28.9441 45.6094 29.1307 45.7947 29.3562 45.7947H34.4802C34.7057 45.7947 34.8923 45.6094 34.9064 45.3717L35.3129 38.5017L37.1259 38.1188C37.3258 38.0764 37.4692 37.8915 37.4692 37.6764V31.8131C37.4692 29.5751 35.745 27.7539 33.6262 27.7539Z" fill="#FFC014"/>
<path d="M31.9211 26.3675C34.2164 26.3675 36.0843 24.4996 36.0843 22.2043C36.0843 19.9089 34.2164 18.041 31.9211 18.041C29.6257 18.041 27.7578 19.9089 27.7578 22.2043C27.7578 24.4996 29.6257 26.3675 31.9211 26.3675Z" fill="#FFC014"/>
</svg>
