<svg xmlns="http://www.w3.org/2000/svg" viewBox="0 0 973.94 270.53"><defs><style>.cls-1{fill:#221f1f;}.cls-2{fill:#e82429;}</style></defs><g id="Layer_2" data-name="Layer 2"><g id="Layer_1-2" data-name="Layer 1"><path class="cls-1" d="M455.27.17V118.25H439.06V37L402.4,118.42,366.92,37v81.25H350.71V.17h19.42L402.4,76.86,436,.17Z"/><path class="cls-1" d="M511.29,118.59H494.9V.17h16.39Z"/><path class="cls-1" d="M638,.17V118.42H619.4L567.54,29.06v89.36H551.66V.17h18.75l52,91.56V.17Z"/><path class="cls-1" d="M759.19,0V76.86a42.4,42.4,0,0,1-77.7,22.47s-6.93-10-6.93-22.47V0h16.22V76a26,26,0,0,0,52,0V0Z"/><path class="cls-1" d="M879,0V15.71l-39.7-.17.34,103.05H823l.17-103h-39V0Z"/><path class="cls-1" d="M973.94,102.71v15.71H903.5V.17h69.6V16.05H919.72V52.37h42.4V68.08h-42.4v34.63Z"/><path class="cls-1" d="M384.26,268.53c-14.7,0-28.21-6.92-35.48-16.89v-.34l6.76-11.49c5.24,7.61,15.37,13.52,28.89,14.36h4.39c11.65,0,21.28-8.61,21.28-20.27s-9.12-16.38-21.28-18.24c-2.54-.68-4.73-.68-7.94-1.18-16.72-3.21-31.76-13-31.76-30.75s14.36-32.6,31.76-32.6h2.53c11.66,0,24.16,5.07,30.41,13l-7.6,14c-6.59-7.27-12.84-11.32-22.81-11.83h-2.53c-9,0-16.39,8.11-16.39,17.4,0,9,6.25,13.85,16.39,15.2,4.22.51,7.09.68,8.28.85,20.1,2.7,35.3,14.19,35.3,34.12,0,19.77-16,34.13-35.64,34.63Z"/><path class="cls-1" d="M528.07,258.06a58,58,0,0,1-34,10.81,59.13,59.13,0,0,1,0-118.25,58,58,0,0,1,34,10.64l-7.43,15.55c-7.43-6.09-16.22-9.13-26.52-9.13a42.15,42.15,0,1,0,27,74.67Z"/><path class="cls-1" d="M632.16,150.62V268.7H615.77V219.37H561.88V268.7H545.5V150.62h16.38v53.89h53.89V150.62Z"/><path class="cls-1" d="M763.52,209.41c0,32.6-24.83,59.29-57.6,59.29-31.09,0-56.09-26.69-56.09-59.29,0-32.44,25-59,56.09-59C738.69,150.45,763.52,177,763.52,209.41Zm-16.22,0c0-23.48-17.74-42.57-41.38-42.57-22.14,0-39.87,19.09-39.87,42.57,0,23.82,17.73,43.07,39.87,43.07C729.56,252.48,747.3,233.23,747.3,209.41Z"/><path class="cls-1" d="M890.35,209.41c0,32.6-24.83,59.29-57.6,59.29-31.08,0-56.08-26.69-56.08-59.29,0-32.44,25-59,56.08-59C865.52,150.45,890.35,177,890.35,209.41Zm-16.21,0c0-23.48-17.74-42.57-41.39-42.57-22.13,0-39.87,19.09-39.87,42.57,0,23.82,17.74,43.07,39.87,43.07C856.4,252.48,874.14,233.23,874.14,209.41Z"/><path class="cls-1" d="M924.11,252.82h49.66v16.05H908.06V150.62h16.05Z"/><path class="cls-1" d="M71.18,1.82V268.44h-35V39.52H0V1.82Z"/><path class="cls-2" d="M298.78,61.37C286.48,29,254.61,5.1,219.86.43V36.28c15.22,3.2,31.15,12.11,39.66,24.47l-59.87,64.37L221,145l49.37-53.07h0Z"/><path class="cls-1" d="M270.57,120v51.87c0,34.24-26.16,61.94-60,61.94-32.7,0-60-27.7-60-61.94V96.46a60.9,60.9,0,0,1,51.64-60.29V.39c-46.29,6.1-85.88,46.79-85.88,96.07v75.41c0,53.48,42.32,97.34,94.26,97.34,52.33,0,94.64-43.86,94.64-97.34V96.46a100.45,100.45,0,0,0-.9-12.71Z"/><path class="cls-1" d="M455.33,2V119.85H439.14V38.74L402.55,120,367.14,38.74v81.11H351V2h19.39l32.2,76.55L436.11,2Z"/><path class="cls-1" d="M511.24,120.19H494.88V2h16.36Z"/><path class="cls-1" d="M637.7,2V120H619.16l-51.77-89.2V120H551.54V2h18.72l51.93,91.39V2Z"/><path class="cls-1" d="M758.7,1.82V78.54A42.33,42.33,0,0,1,681.13,101s-6.91-9.94-6.91-22.42V1.82H690.4V77.69a26,26,0,0,0,51.94,0V1.82Z"/><path class="cls-1" d="M878.33,1.82V17.5l-39.63-.17L839,120.19H822.35l.16-102.86h-39V1.82Z"/><path class="cls-1" d="M973.05,104.34V120H902.74V2h69.47V17.84H918.93V54.09h42.32V69.77H918.93v34.57Z"/><path class="cls-1" d="M384.44,269.86c-14.67,0-28.16-6.91-35.41-16.86v-.34l6.75-11.47c5.23,7.59,15.34,13.49,28.83,14.34H389c11.63,0,21.24-8.6,21.24-20.24s-9.1-16.35-21.24-18.21c-2.53-.67-4.72-.67-7.93-1.18-16.69-3.2-31.7-13-31.7-30.69s14.34-32.54,31.7-32.54h2.53c11.64,0,24.11,5.06,30.35,13l-7.59,14c-6.57-7.25-12.81-11.3-22.76-11.81h-2.53c-8.94,0-16.35,8.1-16.35,17.37,0,8.94,6.23,13.83,16.35,15.18,4.22.5,7.08.67,8.26.84,20.07,2.7,35.25,14.17,35.25,34.06,0,19.73-16,34.06-35.58,34.57Z"/><path class="cls-1" d="M528,259.4a57.94,57.94,0,0,1-33.89,10.8,59,59,0,0,1,0-118A57.81,57.81,0,0,1,528,162.79l-7.42,15.51c-7.42-6.07-16.19-9.11-26.47-9.11a42.07,42.07,0,1,0,27,74.53Z"/><path class="cls-1" d="M631.89,152.16V270H615.54V220.79H561.75V270H545.39V152.16h16.36V206h53.79V152.16Z"/><path class="cls-1" d="M763,210.84c0,32.54-24.78,59.19-57.49,59.19-31,0-56-26.65-56-59.19,0-32.37,25-58.85,56-58.85C738.23,152,763,178.47,763,210.84Zm-16.18,0c0-23.44-17.71-42.49-41.31-42.49-22.09,0-39.8,19.05-39.8,42.49,0,23.78,17.71,43,39.8,43C729.12,253.84,746.83,234.62,746.83,210.84Z"/><path class="cls-1" d="M889.62,210.84c0,32.54-24.79,59.19-57.5,59.19-31,0-56-26.65-56-59.19,0-32.37,25-58.85,56-58.85C864.83,152,889.62,178.47,889.62,210.84Zm-16.19,0c0-23.44-17.71-42.49-41.31-42.49-22.09,0-39.8,19.05-39.8,42.49,0,23.78,17.71,43,39.8,43C855.72,253.84,873.43,234.62,873.43,210.84Z"/><path class="cls-1" d="M923.31,254.18h49.58v16h-65.6v-118h16Z"/><path class="cls-1" d="M71.94,3.63V269.76H37V41.26H.89V3.63Z"/><path class="cls-2" d="M299.12,63.08C286.85,30.79,255,6.91,220.35,2.25V38c15.19,3.19,31.09,12.08,39.59,24.42l-59.76,64.26,21.31,19.83,49.28-53h0Z"/><path class="cls-1" d="M271,121.59v51.78c0,34.18-26.11,61.83-59.9,61.83-32.65,0-59.91-27.65-59.91-61.83V98.1a60.78,60.78,0,0,1,51.54-60.18V2.2C156.49,8.29,117,48.91,117,98.1v75.27c0,53.38,42.24,97.16,94.09,97.16,52.22,0,94.47-43.78,94.47-97.16V98.1a98.32,98.32,0,0,0-.91-12.69Z"/></g></g></svg>