<svg id="Layer_1" data-name="Layer 1" xmlns="http://www.w3.org/2000/svg" viewBox="0 0 873.49 567.11"><defs><style>.cls-1{fill:#ff884b;}.cls-2{fill:#c7ea36;}.cls-3{fill:#16b6c6;}.cls-4,.cls-5{fill:#fff;}.cls-4{opacity:0.3;}.cls-5{font-size:111.55px;font-family:BarlowCondensed-Light, Barlow Condensed;font-weight:300;}.cls-6{letter-spacing:-0.01em;}.cls-7{letter-spacing:0em;}.cls-8{letter-spacing:-0.02em;}</style></defs><title>Physics</title><rect class="cls-1" width="873.49" height="567.11"/><path class="cls-2" d="M436.15,320.26c-28.92,0-44.54-57.81-44.54-112.2s15.62-112.2,44.54-112.2,44.54,57.81,44.54,112.2S465.08,320.26,436.15,320.26Zm0-217c-16.73,0-35.37,43.05-35.37,104.81s18.64,104.8,35.37,104.8,35.38-43,35.38-104.8S452.89,103.25,436.15,103.25Z"/><path class="cls-2" d="M530.69,272.77c-27.53,0-72.29-12.87-116.8-33.6-31.5-14.67-59.05-31.43-77.57-47.2-20-17.05-27.18-30.88-20.64-40,4.09-5.72,12.81-8.62,25.93-8.62,27.53,0,72.29,12.88,116.81,33.61,31.49,14.67,59,31.43,77.57,47.2,20,17,27.17,30.88,20.64,40C552.53,269.88,543.81,272.77,530.69,272.77Zm-189.08-122c-6.6,0-15.09.85-18,4.92-4.11,5.74,3.13,17.42,19.36,31.23,17.93,15.27,44.75,31.56,75.5,45.88,43.2,20.12,86.2,32.61,112.22,32.61,6.6,0,15.09-.85,18-4.92,4.11-5.74-3.12-17.42-19.36-31.23-17.93-15.27-44.75-31.56-75.49-45.87C410.63,163.23,367.63,150.74,341.61,150.74Z"/><path class="cls-2" d="M341.6,272.78c-13.11,0-21.83-2.9-25.93-8.62-14.46-20.21,39.81-60,98.22-87.21,44.51-20.73,89.27-33.61,116.81-33.61,13.11,0,21.83,2.9,25.92,8.62,6.54,9.13-.6,23-20.64,40-18.52,15.76-46.07,32.52-77.56,47.19C413.9,259.9,369.14,272.78,341.6,272.78Zm189.1-122c-26,0-69,12.5-112.23,32.62-66.32,30.87-103.22,65.42-94.86,77.11,2.91,4.06,11.39,4.92,18,4.92,26,0,69-12.5,112.24-32.63,30.74-14.31,57.56-30.6,75.49-45.87,16.23-13.81,23.47-25.49,19.36-31.23C545.78,151.59,537.3,150.74,530.7,150.74Z"/><path class="cls-3" d="M407.34,208.06c0-12.83,12.9-23.24,28.81-23.24S465,195.23,465,208.06s-12.9,23.24-28.81,23.24S407.34,220.89,407.34,208.06Z"/><path class="cls-4" d="M412.51,204.53c0-8.32,8.36-15.06,18.68-15.06s18.68,6.74,18.68,15.06-8.36,15.07-18.68,15.07S412.51,212.85,412.51,204.53Z"/><path class="cls-3" d="M363.51,147.42c0,6-6.06,10.91-13.53,10.91s-13.52-4.89-13.52-10.91,6.06-10.91,13.52-10.91S363.51,141.39,363.51,147.42Z"/><path class="cls-3" d="M416.64,269.08c0,6-6.06,10.91-13.53,10.91s-13.52-4.88-13.52-10.91,6.06-10.9,13.52-10.9S416.64,263.06,416.64,269.08Z"/><path class="cls-3" d="M504.35,153c0,6-6.06,10.91-13.53,10.91S477.3,159,477.3,153s6.05-10.91,13.52-10.91S504.35,147,504.35,153Z"/><path class="cls-4" d="M497.87,150.9c0,4.1-4.12,7.43-9.21,7.43s-9.21-3.33-9.21-7.43,4.13-7.43,9.21-7.43S497.87,146.8,497.87,150.9Z"/><path class="cls-4" d="M357.3,145.57c0,4.11-4.12,7.43-9.21,7.43s-9.2-3.32-9.2-7.43,4.12-7.42,9.2-7.42S357.3,141.48,357.3,145.57Z"/><path class="cls-4" d="M409.71,267.57c0,4.1-4.12,7.43-9.2,7.43s-9.21-3.33-9.21-7.43,4.12-7.42,9.21-7.42S409.71,263.47,409.71,267.57Z"/><text class="cls-5" transform="translate(118.74 465.29) scale(0.99 1)">PH<tspan class="cls-6" x="101.07" y="0">Y</tspan><tspan class="cls-7" x="146.13" y="0">SICS 1</tspan></text><text class="cls-5" transform="translate(475.1 428.15) scale(0.58 0.58)">st</text><text class="cls-5" transform="translate(515.31 465.29) scale(0.99 1)"> <tspan class="cls-8" x="22.31" y="0">P</tspan><tspan x="68.27" y="0">APER</tspan></text><text/><text/><text/></svg>