<svg xmlns="http://www.w3.org/2000/svg" xmlns:xlink="http://www.w3.org/1999/xlink" viewBox="0 0 75.62 75.62"><defs><style>.cls-1{fill:#fff;}.cls-2{fill:url(#linear-gradient);}.cls-3{fill:#e1aa69;}</style><linearGradient id="linear-gradient" x1="20.13" y1="11.12" x2="58.19" y2="68.56" gradientUnits="userSpaceOnUse"><stop offset="0.22" stop-color="#013d3e"/><stop offset="0.45" stop-color="#013739"/><stop offset="0.76" stop-color="#00272b"/><stop offset="1" stop-color="#00151c"/></linearGradient></defs><g id="Layer_2" data-name="Layer 2"><g id="Layer_3" data-name="Layer 3"><g id="Layer_1-2" data-name="Layer 1"><rect class="cls-1" width="75.62" height="75.62" rx="37.81"/><rect class="cls-2" x="1.77" y="1.77" width="72.07" height="72.07" rx="36.04"/></g><g id="Layer_2-2" data-name="Layer 2"><path class="cls-3" d="M57.46,33.76A2.49,2.49,0,0,0,56.4,34l-2.91-2.9v-4.7a2.47,2.47,0,1,0-1.81,0v5.45h0l3.48,3.48a2.48,2.48,0,0,0-.17.9,2.46,2.46,0,0,0,1.56,2.3v.55l-6.32,6.32h0v1.35a2.47,2.47,0,0,0,0,4.59v2a2.47,2.47,0,1,0,1.82,0v-2a2.47,2.47,0,0,0,0-4.59v-.6l6.31-6.31h0V38.52a2.47,2.47,0,0,0-.91-4.76Zm0,1.66a.81.81,0,1,1-.81.8A.8.8,0,0,1,57.46,35.42ZM52.59,23.29a.81.81,0,1,1-.81.8A.8.8,0,0,1,52.59,23.29ZM51.14,49.84a.8.8,0,0,1-.8-.8.8.8,0,1,1,1.6,0A.8.8,0,0,1,51.14,49.84Zm0,6.61a.81.81,0,0,1-.8-.81.8.8,0,0,1,1.6,0A.81.81,0,0,1,51.14,56.45Z"/><path class="cls-3" d="M28,28.94h-8a2.47,2.47,0,1,0-2.34,3.28,2.46,2.46,0,0,0,2.25-1.46H28V30.7A2.46,2.46,0,1,0,28,28.94ZM17.56,30.55a.8.8,0,0,1-.8-.8.81.81,0,1,1,.8.8Zm13.53-.8a.81.81,0,0,1-1.61,0,.81.81,0,1,1,1.61,0Z"/><path class="cls-3" d="M38.26,19.42a2.49,2.49,0,0,0,1.09-.25L47,26.86V35h0l1.8,1.8a2.47,2.47,0,1,0,4.77.91,2.48,2.48,0,0,0-3.52-2.24l-1.24-1.23V26.11h0l-8.28-8.29a2.47,2.47,0,1,0-2.31,1.6ZM51.94,37.73a.8.8,0,1,1-1.6,0,.8.8,0,1,1,1.6,0ZM38.26,16.15a.81.81,0,1,1-.8.8A.8.8,0,0,1,38.26,16.15Z"/><path class="cls-3" d="M45.48,19.42A2.46,2.46,0,0,0,47.69,18h3.94L56.55,23v2.95a2.47,2.47,0,1,0,1.82,0V22.22h0l-6-6H47.84a2.47,2.47,0,1,0-2.36,3.19Zm12,9.59a.8.8,0,0,1-.81-.8.81.81,0,1,1,1.61,0A.8.8,0,0,1,57.46,29Zm-12-12.86a.81.81,0,1,1-.81.8A.8.8,0,0,1,45.48,16.15Z"/><path class="cls-3" d="M47.25,58V46.58a2.47,2.47,0,1,0-1.82.09V57.89a2.47,2.47,0,1,0,1.82.09Zm-1-14.45a.81.81,0,1,1-.8.8A.8.8,0,0,1,46.23,43.53Zm0,17.5a.8.8,0,0,1-.8-.8.81.81,0,1,1,.8.8Z"/><path class="cls-3" d="M33.32,34.69a2.47,2.47,0,1,0,3.29-2.33h.09V26.9h0L33,23.18H30.11a2.47,2.47,0,1,0,0,1.82h2.12l2.65,2.66v4.7H35A2.47,2.47,0,0,0,33.32,34.69Zm-5.5-9.79a.81.81,0,1,1,.8-.81A.81.81,0,0,1,27.82,24.9Zm8,10.59a.8.8,0,0,1-.8-.8.8.8,0,1,1,1.6,0A.8.8,0,0,1,35.79,35.49Z"/><path class="cls-3" d="M23.5,35.6l4.71,4.7H38.43a2.47,2.47,0,1,0,0-1.82H29l-4.7-4.7H15.58l-2-2V25.56l6.23-6.23-.09-.08a2.59,2.59,0,0,0,.92.17A2.47,2.47,0,1,0,18.13,17a2.52,2.52,0,0,0,.29,1.16l-6.7,6.7h0V32.5h0l3.09,3.09H23.5Zm17.23,3a.81.81,0,1,1-.81.8A.8.8,0,0,1,40.73,38.59ZM20.6,16.15a.81.81,0,1,1-.8.8A.8.8,0,0,1,20.6,16.15Z"/><path class="cls-3" d="M35.85,43.42a2.47,2.47,0,0,0-4.59,0H26.6l-3-3a2.36,2.36,0,0,0,.24-1.06,2.47,2.47,0,1,0-2.47,2.47,2.44,2.44,0,0,0,.9-.17l3.55,3.55h5.41a2.47,2.47,0,0,0,4.59,0h7.91V43.42Zm-15.25-4a.81.81,0,1,1,.8.81A.8.8,0,0,1,20.6,39.39Zm13,5.75a.81.81,0,1,1,.8-.81A.81.81,0,0,1,33.56,45.14Z"/><path class="cls-3" d="M21.22,21.94a2.11,2.11,0,0,0-.62-.08,2.47,2.47,0,1,0,2.47,2.47A2.5,2.5,0,0,0,22.7,23l3.7-3.7h0V18h2.47a2.47,2.47,0,0,0,2.22,1.38,2.36,2.36,0,0,0,1-.21l9.29,9.29v2.27a2.47,2.47,0,1,0,1.81-.08v-3h0l-9.83-9.83a2.36,2.36,0,0,0,.2-1,2.47,2.47,0,0,0-4.83-.72H24.58v2.35ZM42.39,33.83a.81.81,0,0,1,0-1.61.81.81,0,0,1,0,1.61ZM31.09,16.15a.81.81,0,1,1-.81.8A.8.8,0,0,1,31.09,16.15Zm-10.49,9a.81.81,0,1,1,.8-.8A.8.8,0,0,1,20.6,25.13Z"/></g></g></g></svg>