<svg width="64" height="64" viewBox="0 0 64 64" fill="none" xmlns="http://www.w3.org/2000/svg">
<rect width="63.8367" height="63.8367" rx="5" fill="#DEFFD9"/>
<path fill-rule="evenodd" clip-rule="evenodd" d="M19.8935 31.9195C19.8935 28.7295 21.1607 25.6702 23.4162 23.4146C25.6718 21.1589 28.7309 19.8917 31.9207 19.8917C35.1106 19.8917 38.1697 21.1589 40.4253 23.4146C42.6808 25.6702 43.948 28.7295 43.948 31.9195C43.948 35.1095 42.6808 38.1688 40.4253 40.4244C38.1697 42.6801 35.1106 43.9473 31.9207 43.9473C28.7309 43.9473 25.6718 42.6801 23.4162 40.4244C21.1607 38.1688 19.8935 35.1095 19.8935 31.9195ZM31.9207 16.8848C23.6174 16.8848 16.8867 23.6158 16.8867 31.9195C16.8867 40.2232 23.6174 46.9543 31.9207 46.9543C40.224 46.9543 46.9548 40.2232 46.9548 31.9195C46.9548 23.6158 40.224 16.8848 31.9207 16.8848ZM33.4241 22.8987C33.4241 22.4999 33.2657 22.1175 32.9838 21.8355C32.7019 21.5536 32.3195 21.3952 31.9207 21.3952C31.522 21.3952 31.1396 21.5536 30.8577 21.8355C30.5757 22.1175 30.4173 22.4999 30.4173 22.8987V31.9195C30.4174 32.3182 30.5759 32.7006 30.8578 32.9825L35.368 37.4929C35.6516 37.7668 36.0313 37.9183 36.4255 37.9149C36.8197 37.9115 37.1968 37.7533 37.4755 37.4746C37.7543 37.1958 37.9124 36.8187 37.9158 36.4245C37.9192 36.0303 37.7677 35.6505 37.4938 35.367L33.4241 31.2971V22.8987Z" fill="#45C881"/>
</svg>
