<?xml version="1.0" standalone="no"?>
<!DOCTYPE svg PUBLIC "-//W3C//DTD SVG 20010904//EN"
 "http://www.w3.org/TR/2001/REC-SVG-20010904/DTD/svg10.dtd">
<svg version="1.0" xmlns="http://www.w3.org/2000/svg"
 width="192.000000pt" height="192.000000pt" viewBox="0 0 192.000000 192.000000"
 preserveAspectRatio="xMidYMid meet">

<g transform="translate(0.000000,192.000000) scale(0.100000,-0.100000)"
fill="#000000" stroke="none">
<path d="M901 1369 c-45 -18 -50 -36 -51 -165 l0 -121 27 -12 c24 -11 29 -10
38 4 39 66 53 81 88 89 31 8 42 6 65 -11 15 -11 31 -35 36 -54 7 -30 3 -45
-28 -107 -39 -77 -45 -112 -21 -112 22 0 20 -10 -35 -160 -55 -152 -59 -170
-31 -170 15 0 28 24 61 118 70 190 77 207 90 207 7 0 39 -73 72 -162 33 -89
66 -164 73 -167 36 -14 32 22 -21 168 -30 82 -54 152 -54 157 0 5 40 9 88 9
82 0 90 2 113 26 23 25 24 31 27 197 2 107 -1 186 -8 209 -18 64 -37 68 -287
67 -120 0 -229 -5 -242 -10z m414 -139 l0 -25 -173 -3 c-147 -2 -173 0 -178
13 -4 8 -4 22 0 30 5 13 31 15 178 13 l173 -3 0 -25z m3 -99 c5 -33 -12 -41
-90 -41 -63 0 -98 14 -98 39 0 23 30 32 105 29 76 -3 80 -4 83 -27z m-3 -111
c0 -25 -2 -25 -86 -28 -71 -2 -88 0 -92 13 -15 38 2 46 92 43 84 -3 86 -3 86
-28z"/>
<path d="M582 1286 c-33 -31 -37 -40 -37 -84 0 -57 19 -86 75 -110 l35 -15
-30 -7 c-92 -20 -145 -97 -145 -212 0 -56 14 -97 40 -115 17 -12 20 -26 20
-97 0 -50 5 -87 12 -94 13 -13 173 -17 202 -6 14 5 16 30 16 175 0 93 2 169 5
169 3 0 28 -11 55 -25 82 -42 140 -26 140 39 0 14 16 58 35 96 39 78 43 100
17 100 -13 0 -28 -19 -47 -61 -16 -33 -33 -63 -37 -65 -4 -3 -49 17 -100 42
-51 26 -111 50 -133 54 l-40 5 40 20 c27 13 46 33 59 59 17 36 18 43 5 80 -17
48 -67 86 -116 86 -24 0 -44 -9 -71 -34z"/>
</g>
</svg>
