<svg xmlns="http://www.w3.org/2000/svg" xmlns:xlink="http://www.w3.org/1999/xlink" viewBox="0 0 499.38 117.43"><defs><style>.cls-1{fill:url(#linear-gradient);}.cls-2{fill:url(#linear-gradient-2);}.cls-3{fill:url(#linear-gradient-3);}.cls-4{fill:url(#linear-gradient-4);}.cls-5{fill:url(#linear-gradient-5);}.cls-6{fill:url(#linear-gradient-6);}.cls-7{fill:url(#linear-gradient-7);}.cls-8{fill:url(#linear-gradient-8);}.cls-9{fill:url(#linear-gradient-9);}.cls-10{fill:url(#linear-gradient-10);}.cls-11{fill:url(#linear-gradient-11);}.cls-12{fill:#221f1f;}.cls-13{fill:#e82429;}</style><linearGradient id="linear-gradient" y1="92.25" x2="36.15" y2="92.25" gradientUnits="userSpaceOnUse"><stop offset="0" stop-color="#39bd8e"/><stop offset="1" stop-color="#009245"/></linearGradient><linearGradient id="linear-gradient-2" x1="43.73" y1="92.25" x2="83.01" y2="92.25" xlink:href="#linear-gradient"/><linearGradient id="linear-gradient-3" x1="82.07" y1="92.25" x2="131.44" y2="92.25" xlink:href="#linear-gradient"/><linearGradient id="linear-gradient-4" x1="133.13" y1="92.25" x2="168.03" y2="92.25" xlink:href="#linear-gradient"/><linearGradient id="linear-gradient-5" x1="173.85" y1="92.25" x2="216.14" y2="92.25" xlink:href="#linear-gradient"/><linearGradient id="linear-gradient-6" x1="243.27" y1="92.25" x2="279.42" y2="92.25" xlink:href="#linear-gradient"/><linearGradient id="linear-gradient-7" x1="284.62" y1="92.25" x2="336.87" y2="92.25" xlink:href="#linear-gradient"/><linearGradient id="linear-gradient-8" x1="342.32" y1="92.88" x2="383.54" y2="92.88" xlink:href="#linear-gradient"/><linearGradient id="linear-gradient-9" x1="391.31" y1="92.25" x2="430.59" y2="92.25" xlink:href="#linear-gradient"/><linearGradient id="linear-gradient-10" x1="431.78" y1="92.25" x2="466.68" y2="92.25" xlink:href="#linear-gradient"/><linearGradient id="linear-gradient-11" x1="472.5" y1="92.25" x2="499.38" y2="92.25" xlink:href="#linear-gradient"/></defs><g id="Layer_2" data-name="Layer 2"><g id="Layer_1-2" data-name="Layer 1"><path class="cls-1" d="M36.15,84.48a13.35,13.35,0,0,0-10.78-5.2c-7.51,0-12.59,5.76-12.59,13.09s5.14,12.85,12.78,12.85a14.13,14.13,0,0,0,10.59-5v14.72c-4.07,1.25-7,2.19-10.84,2.19a26.34,26.34,0,0,1-17.73-7C2.38,105.47,0,99.33,0,92.31A24.73,24.73,0,0,1,7,75a25.61,25.61,0,0,1,18-7.64,28.7,28.7,0,0,1,11.22,2.38Z"/><path class="cls-2" d="M83,115.87H67.72L56.13,97.7H56v18.17H43.73V68.63H62.09c9.33,0,16.41,4.45,16.41,14.54,0,6.51-3.63,12.15-10.34,13.34ZM56,89.81H57.2c4,0,8.52-.76,8.52-5.89S61.21,78,57.2,78H56Z"/><path class="cls-3" d="M98.36,107.66l-3.26,8.21h-13l18.17-47.24h13.41l17.79,47.24h-13.1l-3.07-8.21Zm8.58-24.43h-.12l-5.08,15H112Z"/><path class="cls-4" d="M161.2,80.78a13,13,0,0,0-8.15-3.13c-2.25,0-5.26,1.32-5.26,3.95s3.32,3.82,5.45,4.51l3.13.94C163,89,168,92.31,168,100c0,4.69-1.13,9.52-4.89,12.71a20.7,20.7,0,0,1-13.41,4.45,29.09,29.09,0,0,1-16.6-5.39l5.26-9.9c3.07,2.7,6.71,4.89,10.9,4.89,2.89,0,6-1.44,6-4.76s-4.82-4.64-7.45-5.39C140.08,94.38,135,92.37,135,83.23c0-9.59,6.83-15.85,16.29-15.85a32.27,32.27,0,0,1,14.78,3.88Z"/><path class="cls-5" d="M203.86,86.86V68.63h12.28v47.24H203.86V96.51H186.13v19.36H173.85V68.63h12.28V86.86Z"/><path class="cls-6" d="M279.42,84.48a13.35,13.35,0,0,0-10.78-5.2c-7.52,0-12.59,5.76-12.59,13.09s5.14,12.85,12.78,12.85a14.13,14.13,0,0,0,10.59-5v14.72c-4.08,1.25-7,2.19-10.84,2.19a26.32,26.32,0,0,1-17.73-7c-5.2-4.7-7.58-10.84-7.58-17.86A24.73,24.73,0,0,1,250.22,75a25.61,25.61,0,0,1,18-7.64,28.74,28.74,0,0,1,11.22,2.38Z"/><path class="cls-7" d="M336.87,91.37c0,15.29-11,26.06-26.13,26.06s-26.12-10.77-26.12-26.06c0-14.28,12.53-24.31,26.12-24.31S336.87,77.09,336.87,91.37Zm-39.47.06c0,8.15,6,14.1,13.34,14.1s13.34-6,13.34-14.1c0-6.51-6-12.46-13.34-12.46S297.4,84.92,297.4,91.43Z"/><path class="cls-8" d="M383.54,68.63V95.19c0,6.08-.25,12.09-5,16.67-3.95,3.88-10.15,5.26-15.66,5.26s-11.72-1.38-15.66-5.26c-4.7-4.58-4.95-10.59-4.95-16.67V68.63H354.6V93.5c0,6.14.43,12.85,8.33,12.85s8.33-6.71,8.33-12.85V68.63Z"/><path class="cls-9" d="M430.59,115.87H415.3L403.71,97.7h-.12v18.17H391.31V68.63h18.35c9.34,0,16.42,4.45,16.42,14.54,0,6.51-3.64,12.15-10.34,13.34Zm-27-26.06h1.19c4,0,8.52-.76,8.52-5.89S408.79,78,404.78,78h-1.19Z"/><path class="cls-10" d="M459.85,80.78a13,13,0,0,0-8.15-3.13c-2.25,0-5.26,1.32-5.26,3.95s3.32,3.82,5.45,4.51l3.13.94C461.6,89,466.68,92.31,466.68,100c0,4.69-1.13,9.52-4.89,12.71a20.7,20.7,0,0,1-13.41,4.45,29.09,29.09,0,0,1-16.6-5.39l5.26-9.9c3.07,2.7,6.71,4.89,10.9,4.89,2.89,0,6-1.44,6-4.76s-4.83-4.64-7.46-5.39c-7.71-2.19-12.78-4.2-12.78-13.34,0-9.59,6.83-15.85,16.29-15.85a32.27,32.27,0,0,1,14.78,3.88Z"/><path class="cls-11" d="M484.78,79v7.89h13.85v10.4H484.78v8.15h14.6v10.4H472.5V68.63h26.88V79Z"/><path class="cls-12" d="M244.23,0V20.38h-2.8v-14l-6.31,14L229,6.37v14h-2.79V0h3.35l5.56,13.21L240.91,0Z"/><path class="cls-12" d="M253.88,20.43h-2.82V0h2.82Z"/><path class="cls-12" d="M275.71,0V20.41h-3.2L263.57,5v15.4h-2.73V0h3.23l9,15.78V0Z"/><path class="cls-12" d="M296.6,0V13.24a7.31,7.31,0,0,1-13.39,3.88,7.52,7.52,0,0,1-1.2-3.88V0h2.8V13.1a4.48,4.48,0,1,0,9,0V0Z"/><path class="cls-12" d="M317.25,0V2.71l-6.84,0,.06,17.75h-2.89l0-17.75h-6.72V0Z"/><path class="cls-12" d="M333.6,17.7v2.71H321.46V0h12V2.77h-9.2V9h7.3v2.71h-7.3v6Z"/><path class="cls-12" d="M232,46.27a7.64,7.64,0,0,1-6.11-2.91V43.3l1.16-2a6.41,6.41,0,0,0,5,2.48h.76a3.55,3.55,0,0,0,3.66-3.5c0-2-1.57-2.82-3.66-3.14a11.49,11.49,0,0,0-1.37-.2c-2.88-.56-5.47-2.24-5.47-5.3A5.59,5.59,0,0,1,231.41,26h.43a6.94,6.94,0,0,1,5.24,2.24l-1.31,2.42a5.27,5.27,0,0,0-3.93-2h-.43a3,3,0,0,0-2.83,3c0,1.54,1.08,2.39,2.83,2.62.73.09,1.22.12,1.42.14,3.47.47,6.09,2.45,6.09,5.88a6.06,6.06,0,0,1-6.14,6Z"/><path class="cls-12" d="M256.77,44.47a10,10,0,0,1-5.85,1.86,10.19,10.19,0,1,1,0-20.38,10,10,0,0,1,5.85,1.84l-1.28,2.68a7,7,0,0,0-4.57-1.58,7.27,7.27,0,1,0,4.66,12.87Z"/><path class="cls-12" d="M274.71,26V46.3h-2.83V37.8H262.6v8.5h-2.83V26h2.83v9.29h9.28V26Z"/><path class="cls-12" d="M297.34,36.08a9.8,9.8,0,1,1-19.59,0,9.8,9.8,0,1,1,19.59,0Zm-2.79,0a7,7,0,1,0-14,0,7,7,0,1,0,14,0Z"/><path class="cls-12" d="M319.2,36.08a10,10,0,0,1-9.93,10.22c-5.35,0-9.66-4.6-9.66-10.22a9.8,9.8,0,1,1,19.59,0Zm-2.8,0a7,7,0,1,0-14,0,7,7,0,1,0,14,0Z"/><path class="cls-12" d="M325,43.56h8.56v2.77H322.25V26H325Z"/><path class="cls-12" d="M178,.31V46.26h-6V6.81h-6.23V.31Z"/><path class="cls-13" d="M217.26,10.58A17.19,17.19,0,0,0,203.66.07V6.25a11.41,11.41,0,0,1,6.84,4.22L200.18,21.56,203.86,25l8.51-9.14h0Z"/><path class="cls-12" d="M212.4,20.68v8.94a10.43,10.43,0,0,1-10.34,10.67,10.55,10.55,0,0,1-10.34-10.67v-13a10.5,10.5,0,0,1,8.89-10.39V.07c-8,1.05-14.79,8.06-14.79,16.55v13c0,9.21,7.29,16.77,16.24,16.77a16.58,16.58,0,0,0,16.31-16.77v-13a17.64,17.64,0,0,0-.16-2.19Z"/></g></g></svg>