<svg xmlns="http://www.w3.org/2000/svg" xmlns:xlink="http://www.w3.org/1999/xlink" viewBox="0 0 339.22 94.6"><defs><style>.cls-1{fill:none;}.cls-2{clip-path:url(#clip-path);}.cls-3{fill:#f56a5e;}.cls-4{fill:#f4695f;}.cls-5{fill:#f46860;}.cls-6{fill:#f36761;}.cls-7{fill:#f36662;}.cls-8{fill:#f26563;}.cls-9{fill:#f26464;}.cls-10{fill:#f16366;}.cls-11{fill:#f16267;}.cls-12{fill:#f06268;}.cls-13{fill:#f06169;}.cls-14{fill:#ef606a;}.cls-15{fill:#ef5f6b;}.cls-16{fill:#ee5e6c;}.cls-17{fill:#ee5d6d;}.cls-18{fill:#ed5c6e;}.cls-19{fill:#ed5b6f;}.cls-20{fill:#ec5a70;}.cls-21{fill:#ec5971;}.cls-22{fill:#eb5872;}.cls-23{fill:#eb5773;}.cls-24{fill:#ea5674;}.cls-25{fill:#ea5575;}.cls-26{fill:#e95476;}.cls-27{fill:#e95377;}.cls-28{fill:#e85278;}.cls-29{fill:#e85179;}.cls-30{fill:#e7507a;}.cls-31{fill:#e74f7b;}.cls-32{fill:#e64e7c;}.cls-33{fill:#e64d7d;}.cls-34{fill:#e54c7e;}.cls-35{fill:#e54b7f;}.cls-36{fill:#e44a80;}.cls-37{fill:#e44981;}.cls-38{fill:#e34882;}.cls-39{fill:#e34783;}.cls-40{clip-path:url(#clip-path-2);}.cls-41{fill:#fe7c4c;}.cls-42{fill:#fd7b4d;}.cls-43{fill:#fd7a4e;}.cls-44{fill:#fc794f;}.cls-45{fill:#fc7850;}.cls-46{fill:#fb7751;}.cls-47{fill:#fb7652;}.cls-48{fill:#fa7553;}.cls-49{fill:#fa7454;}.cls-50{fill:#f97355;}.cls-51{fill:#f97256;}.cls-52{fill:#f87157;}.cls-53{fill:#f87058;}.cls-54{fill:#f76f59;}.cls-55{fill:#f76e5a;}.cls-56{fill:#f66d5b;}.cls-57{fill:#f66c5c;}.cls-58{fill:#f56b5d;}.cls-59{fill:#231f20;}.cls-60{fill:#545454;}</style><clipPath id="clip-path"><path class="cls-1" d="M39.28,69.52A22.54,22.54,0,0,1,34.9,68c-.62-.28-1.22-.6-1.82-.94A18.19,18.19,0,0,1,31.35,66a22.28,22.28,0,0,1-3.51-3A22.83,22.83,0,0,1,38.58,25.25a23.88,23.88,0,0,1,3.85-.68V5.34a.72.72,0,0,0-.72-.72H38.6a.73.73,0,0,0-.72.72v7.12c-.87.16-1.73.36-2.57.58s-1.7.5-2.53.78L29.22,7.66a.7.7,0,0,0-1-.26L18.06,13.28a.71.71,0,0,0-.27,1l3.56,6.15c-.67.58-1.33,1.18-2,1.8s-1.21,1.27-1.79,1.94l-6.16-3.56a.71.71,0,0,0-1,.26l-5.9,10.2a.73.73,0,0,0,.26,1L11,35.6c-.3.84-.55,1.68-.78,2.52s-.43,1.71-.59,2.58H2.53a.72.72,0,0,0-.72.72V53.18a.72.72,0,0,0,.72.72H9.65c.16.88.36,1.74.58,2.57h0c.22.84.48,1.68.77,2.52L4.85,62.55a.74.74,0,0,0-.26,1l5.88,10.18a.74.74,0,0,0,1,.26l6.15-3.56c.58.68,1.18,1.32,1.8,1.94s1.26,1.21,1.94,1.8l-3.56,6.16a.73.73,0,0,0,.26,1l3.33,1.92,3.55,2.05,3.32,1.92a.71.71,0,0,0,1-.26l3.57-6.17q1.26.43,2.52.78c.85.23,1.71.43,2.58.59v7.11a.72.72,0,0,0,.71.72h3.11a.72.72,0,0,0,.72-.72V78.85a.72.72,0,0,0-.62-.72L40.45,78a32.63,32.63,0,0,1-4-.79l-1.39-.4c-.83-.28-1.65-.57-2.45-.91l-1.26-.52a.72.72,0,0,0-.9.3l-2.93,5.08a.74.74,0,0,1-1,.27l-2.3-1.33a.75.75,0,0,1-.27-1l2.93-5.07a.72.72,0,0,0-.18-.94l-1.09-.83c-.68-.52-1.35-1.09-2-1.68l-1-1a29.34,29.34,0,0,1-2.67-3L19.13,65a.75.75,0,0,0-.94-.19l-5.08,3a.72.72,0,0,1-1-.28L10.79,65.2a.71.71,0,0,1,.26-1l5.09-2.93a.72.72,0,0,0,.3-.89l-.53-1.27a31.44,31.44,0,0,1-1.29-3.84,32.46,32.46,0,0,1-.79-3.95L13.65,50a.72.72,0,0,0-.72-.63H7.06a.71.71,0,0,1-.71-.72V46a.72.72,0,0,1,.71-.72h5.88a.71.71,0,0,0,.71-.62l.18-1.35a29.34,29.34,0,0,1,.79-4,31.18,31.18,0,0,1,1.29-3.82l.53-1.28a.71.71,0,0,0-.3-.89l-5.08-2.93a.72.72,0,0,1-.26-1l1.33-2.3a.73.73,0,0,1,1-.28l5.08,2.94a.72.72,0,0,0,.93-.19L20,28.47a30.57,30.57,0,0,1,2.67-3,34.57,34.57,0,0,1,3-2.67l1.08-.82a.73.73,0,0,0,.19-.94L24,15.92a.73.73,0,0,1,.26-1l2.32-1.34a.73.73,0,0,1,1,.26L30.49,19a.72.72,0,0,0,.9.3l1.27-.51a28.19,28.19,0,0,1,3.82-1.3h0l.51-.12a.69.69,0,0,1,.62.13.73.73,0,0,1,.27.57v2.16a.71.71,0,0,1-.53.69,27.33,27.33,0,0,0-8.29,49c.56.38,1.14.75,1.74,1.09s1.2.67,1.81,1a26.52,26.52,0,0,0,9.64,2.62V70A21.89,21.89,0,0,1,39.28,69.52Z"/></clipPath><clipPath id="clip-path-2"><path class="cls-1" d="M83.38,29.92l-8.94,4.26C74.13,37,70.35,38,68.3,36.12a3,3,0,0,1,0-4.55A3.84,3.84,0,0,1,72.54,31l8.84-4.23a.69.69,0,0,0,.41-.64v-11a.73.73,0,0,0-.37-.64L70.89,8.74,62.9,14v.11a2.94,2.94,0,0,1-.52,1.66,3.24,3.24,0,0,1-1.09,1l-.14,23a.73.73,0,0,0,.39.65l7.93,4.09c2.32-.78,5.18.23,5.18,2.91a3.45,3.45,0,0,1-3.61,3.23,3.49,3.49,0,0,1-3.6-3l-10-5.14a.69.69,0,0,1-.38-.65l.15-25.1a3.48,3.48,0,0,1-1.07-1,3,3,0,0,1-.5-1.65,3,3,0,0,1,1.06-2.28,3.73,3.73,0,0,1,2.55-.95l.79.08.43.11L67.1,6.75,58.38,2.21a.71.71,0,0,0-.69,0L47.54,8a.7.7,0,0,0-.36.62V70h0a10.91,10.91,0,0,0,2.74-1.31h0a3.5,3.5,0,0,1,3.57-2.84c3.11,0,4.89,3.43,2.56,5.51a3.2,3.2,0,0,1-3.74.75,14,14,0,0,1-5.16,2.44v13a.71.71,0,0,0,.43.66l9.84,4.27a.7.7,0,0,0,.63,0l3.17-1.72,3.47-1.9,2.48-1.4-7.86-3.77a3.65,3.65,0,1,1,1.44-4.11l11.07,5.32,2.53-1.37,6.94-3.87a.71.71,0,0,0,.37-.63l0-22.55a3.17,3.17,0,0,1-1.58-2.68,3.63,3.63,0,0,1,7.21,0,3.15,3.15,0,0,1-1.59,2.68v7.4l7-3.89a.7.7,0,0,0,.37-.63l.11-23.63a.71.71,0,0,0-.37-.63l-8.82-5.08A.69.69,0,0,0,83.38,29.92ZM73.62,76.46a3.74,3.74,0,0,1-2.55,1,3.82,3.82,0,0,1-2.55-1,3.07,3.07,0,0,1-1-2.29,3,3,0,0,1,.5-1.64,3.47,3.47,0,0,1,1.09-1V62.36a.67.67,0,0,0-.36-.62L59.94,56.6a3.94,3.94,0,0,1-5-.08C52.59,54.41,54.39,51,57.49,51a3.71,3.71,0,0,1,3.16,1.68l12.08,7.08a.7.7,0,0,1,.36.62V71.51a3.33,3.33,0,0,1,1.08,1,2.9,2.9,0,0,1,.52,1.64A3,3,0,0,1,73.62,76.46Z"/></clipPath></defs><g id="Layer_2" data-name="Layer 2"><g id="Layer_1-2" data-name="Layer 1"><path class="cls-1" d="M73.09,71.51V60.38a.7.7,0,0,0-.36-.62L60.65,52.68A3.71,3.71,0,0,0,57.49,51c-3.1,0-4.9,3.41-2.55,5.52a3.94,3.94,0,0,0,5,.08l8.76,5.14a.67.67,0,0,1,.36.62v9.15a3.47,3.47,0,0,0-1.09,1,3,3,0,0,0-.5,1.64,3.07,3.07,0,0,0,1,2.29,3.82,3.82,0,0,0,2.55,1,3.74,3.74,0,0,0,2.55-1,3,3,0,0,0,1.07-2.28,2.9,2.9,0,0,0-.52-1.64A3.33,3.33,0,0,0,73.09,71.51Z"/><path class="cls-1" d="M83.59,27.84V13.62l-12.94-7L58,0,45.3,7.19l-.08,0h-1V2.84H36.08V11l-.67.16-.57.15-.56.16-.66.19L29.52,4.6,15,13l4.08,7.07-.51.48-.42.42-.41.4-.47.51-7.08-4.09L1.74,32.36l7.09,4.09-.2.66-.15.56-.15.57-.17.68H0V55.73H8.18q.29,1.25.66,2.46L1.76,62.28l8.41,14.56,7.06-4.08.48.5.41.42.42.41.5.48L15,81.65l14.57,8.4L33.61,83l.66.2.57.15.56.15.68.16v8.17h8.15V89.13h1l.06,0L57.86,94.6l7.73-4.22,9.65-5.32,8.25-4.61L83.68,67l11.25-6.25.12-26.58L83.8,27.74ZM92.87,35a.71.71,0,0,1,.37.63l-.11,23.63a.7.7,0,0,1-.37.63l-7,3.89V56.4a3.15,3.15,0,0,0,1.59-2.68,3.63,3.63,0,0,0-7.21,0,3.17,3.17,0,0,0,1.58,2.68l0,22.55a.71.71,0,0,1-.37.63l-6.94,3.87-2.53,1.37L60.78,79.5a3.66,3.66,0,1,0-1.44,4.11l7.86,3.77-2.48,1.4-3.47,1.9L58.08,92.4a.7.7,0,0,1-.63,0l-9.84-4.27a.71.71,0,0,1-.43-.66v-13c-.92.09-1.85.14-2.79.14-.41,0-.82,0-1.22,0v.48h-.92v-.54A26.52,26.52,0,0,1,32.61,72c-.61-.29-1.22-.61-1.81-1s-1.18-.71-1.74-1.09a27.37,27.37,0,0,1,8.29-49,.71.71,0,0,0,.53-.69V18a.73.73,0,0,0-.27-.57.69.69,0,0,0-.62-.13l-.51.12h0a28.19,28.19,0,0,0-3.82,1.3l-1.27.51a.72.72,0,0,1-.9-.3l-2.93-5.09a.73.73,0,0,0-1-.26l-2.32,1.34a.73.73,0,0,0-.26,1L26.93,21a.73.73,0,0,1-.19.94l-1.08.82a34.57,34.57,0,0,0-3,2.67,30.57,30.57,0,0,0-2.67,3l-.83,1.09a.72.72,0,0,1-.93.19l-5.08-2.94a.73.73,0,0,0-1,.28l-1.33,2.3a.72.72,0,0,0,.26,1l5.08,2.93a.71.71,0,0,1,.3.89l-.53,1.28a31.18,31.18,0,0,0-1.29,3.82,29.34,29.34,0,0,0-.79,4l-.18,1.35a.71.71,0,0,1-.71.62H7.06a.72.72,0,0,0-.71.72v2.68a.71.71,0,0,0,.71.72h5.87a.72.72,0,0,1,.72.63l.18,1.36a32.46,32.46,0,0,0,.79,3.95,31.44,31.44,0,0,0,1.29,3.84l.53,1.27a.72.72,0,0,1-.3.89l-5.09,2.93a.71.71,0,0,0-.26,1l1.34,2.32a.72.72,0,0,0,1,.28l5.08-3a.75.75,0,0,1,.94.19L20,66.12a29.34,29.34,0,0,0,2.67,3l1,1c.65.59,1.32,1.16,2,1.68l1.09.83a.72.72,0,0,1,.18.94L24,78.67a.75.75,0,0,0,.27,1L26.57,81a.74.74,0,0,0,1-.27l2.93-5.08a.72.72,0,0,1,.9-.3l1.26.52c.8.34,1.62.63,2.45.91l1.39.4a32.63,32.63,0,0,0,4,.79l1.35.17a.72.72,0,0,1,.62.72V89.26a.72.72,0,0,1-.72.72H38.6a.72.72,0,0,1-.71-.72V82.15c-.87-.16-1.73-.36-2.58-.59s-1.68-.49-2.52-.78L29.22,87a.71.71,0,0,1-1,.26l-3.32-1.92-3.55-2.05L18,81.32a.73.73,0,0,1-.26-1l3.56-6.16c-.68-.59-1.32-1.17-1.94-1.8s-1.22-1.26-1.8-1.94L11.45,74a.74.74,0,0,1-1-.26L4.59,63.55a.74.74,0,0,1,.26-1L11,59c-.29-.84-.55-1.68-.77-2.52h0c-.22-.83-.42-1.69-.58-2.57H2.53a.72.72,0,0,1-.72-.72V41.42a.72.72,0,0,1,.72-.72h7.1c.16-.87.36-1.73.59-2.58s.48-1.68.78-2.52L4.83,32a.73.73,0,0,1-.26-1l5.9-10.2a.71.71,0,0,1,1-.26l6.16,3.56c.58-.67,1.18-1.33,1.79-1.94s1.28-1.22,2-1.8l-3.56-6.15a.71.71,0,0,1,.27-1L28.24,7.4a.7.7,0,0,1,1,.26l3.56,6.16c.83-.28,1.67-.54,2.53-.78s1.7-.42,2.57-.58V5.34a.73.73,0,0,1,.72-.72h3.11a.72.72,0,0,1,.72.72V24.57a23.88,23.88,0,0,0-3.85.68A22.82,22.82,0,0,0,27.84,62.91a22.28,22.28,0,0,0,3.51,3,18.19,18.19,0,0,0,1.73,1.11c.6.34,1.2.66,1.82.94a22.54,22.54,0,0,0,4.38,1.52,21.89,21.89,0,0,0,3,.49v-.26h.92v.34a18.3,18.3,0,0,0,4-.1V8.6A.7.7,0,0,1,47.54,8L57.69,2.22a.71.71,0,0,1,.69,0L67.1,6.75,60.52,11l-.43-.11-.79-.08a3.73,3.73,0,0,0-2.55.95,3,3,0,0,0-1.06,2.28,3,3,0,0,0,.5,1.65,3.48,3.48,0,0,0,1.07,1l-.15,25.1a.69.69,0,0,0,.38.65l10,5.14a3.49,3.49,0,0,0,3.6,3,3.45,3.45,0,0,0,3.61-3.23c0-2.68-2.86-3.69-5.18-2.91l-7.93-4.09a.73.73,0,0,1-.39-.65l.14-23a3.24,3.24,0,0,0,1.09-1,2.94,2.94,0,0,0,.52-1.66V14l8-5.22,10.53,5.73a.73.73,0,0,1,.37.64v11a.69.69,0,0,1-.41.64L72.54,31a3.84,3.84,0,0,0-4.24.57,3,3,0,0,0,0,4.55c2,1.84,5.83.86,6.14-1.94l8.94-4.26a.69.69,0,0,1,.67,0Z"/><path class="cls-1" d="M56.08,71.34c2.33-2.08.55-5.51-2.56-5.51A3.5,3.5,0,0,0,50,68.67h0A10.91,10.91,0,0,1,47.18,70h0v4.54a14,14,0,0,0,5.16-2.44A3.2,3.2,0,0,0,56.08,71.34Z"/><g class="cls-2"><polygon class="cls-3" points="42.43 6.23 40.65 4.62 42.43 4.62 42.43 6.23"/><polygon class="cls-4" points="42.43 9 37.58 4.62 40.65 4.62 42.43 6.23 42.43 9"/><polygon class="cls-5" points="42.43 11.77 34.51 4.62 37.58 4.62 42.43 9 42.43 11.77"/><polygon class="cls-6" points="42.43 14.54 31.44 4.62 34.51 4.62 42.43 11.77 42.43 14.54"/><polygon class="cls-7" points="42.43 17.31 28.37 4.62 31.44 4.62 42.43 14.54 42.43 17.31"/><polygon class="cls-8" points="42.43 20.08 25.3 4.62 28.37 4.62 42.43 17.31 42.43 20.08"/><polygon class="cls-9" points="42.43 22.85 22.28 4.66 22.31 4.62 25.3 4.62 42.43 20.08 42.43 22.85"/><polygon class="cls-10" points="42.43 25.62 20.9 6.19 22.28 4.66 42.43 22.85 42.43 25.62"/><polygon class="cls-11" points="42.43 28.39 19.52 7.71 20.9 6.19 42.43 25.62 42.43 28.39"/><polygon class="cls-12" points="42.43 31.16 18.14 9.24 19.52 7.71 42.43 28.39 42.43 31.16"/><polygon class="cls-13" points="42.43 33.93 16.77 10.77 18.14 9.24 42.43 31.16 42.43 33.93"/><polygon class="cls-14" points="42.43 36.7 15.39 12.29 16.77 10.77 42.43 33.93 42.43 36.7"/><polygon class="cls-15" points="42.43 39.47 14.01 13.82 15.39 12.29 42.43 36.7 42.43 39.47"/><polygon class="cls-16" points="42.43 42.24 12.63 15.34 14.01 13.82 42.43 39.47 42.43 42.24"/><polygon class="cls-17" points="42.43 45.01 11.26 16.87 12.63 15.34 42.43 42.24 42.43 45.01"/><polygon class="cls-18" points="42.43 47.78 9.88 18.4 11.26 16.87 42.43 45.01 42.43 47.78"/><polygon class="cls-19" points="42.43 50.55 8.5 19.92 9.88 18.4 42.43 47.78 42.43 50.55"/><polygon class="cls-20" points="42.43 53.32 7.12 21.45 8.5 19.92 42.43 50.55 42.43 53.32"/><polygon class="cls-21" points="42.43 56.09 5.74 22.98 7.12 21.45 42.43 53.32 42.43 56.09"/><polygon class="cls-22" points="42.43 58.86 4.37 24.5 5.74 22.98 42.43 56.09 42.43 58.86"/><polygon class="cls-23" points="42.43 61.63 2.99 26.03 4.37 24.5 42.43 58.86 42.43 61.63"/><polygon class="cls-24" points="42.43 64.4 1.81 27.73 1.81 27.33 2.99 26.03 42.43 61.63 42.43 64.4"/><polygon class="cls-25" points="42.43 67.17 1.81 30.5 1.81 27.73 42.43 64.4 42.43 67.17"/><polygon class="cls-26" points="42.43 69.94 1.81 33.27 1.81 30.5 42.43 67.17 42.43 69.94"/><polygon class="cls-27" points="42.43 72.71 1.81 36.04 1.81 33.27 42.43 69.94 42.43 72.71"/><polygon class="cls-28" points="42.43 75.48 1.81 38.81 1.81 36.04 42.43 72.71 42.43 75.48"/><polygon class="cls-29" points="42.43 78.25 1.81 41.58 1.81 38.81 42.43 75.48 42.43 78.25"/><polygon class="cls-30" points="42.43 81.02 1.81 44.35 1.81 41.58 42.43 78.25 42.43 81.02"/><polygon class="cls-31" points="42.43 83.79 1.81 47.12 1.81 44.35 42.43 81.02 42.43 83.79"/><polygon class="cls-32" points="42.43 86.56 1.81 49.89 1.81 47.12 42.43 83.79 42.43 86.56"/><polygon class="cls-33" points="42.43 89.33 1.81 52.66 1.81 49.89 42.43 86.56 42.43 89.33"/><polygon class="cls-34" points="40.08 89.98 1.81 55.43 1.81 52.66 42.43 89.33 42.43 89.98 40.08 89.98"/><polygon class="cls-35" points="37.01 89.98 1.81 58.2 1.81 55.43 40.08 89.98 37.01 89.98"/><polygon class="cls-36" points="33.94 89.98 1.81 60.97 1.81 58.2 37.01 89.98 33.94 89.98"/><polygon class="cls-37" points="30.87 89.98 1.81 63.74 1.81 60.97 33.94 89.98 30.87 89.98"/><polygon class="cls-38" points="27.8 89.98 1.81 66.51 1.81 63.74 30.87 89.98 27.8 89.98"/><polygon class="cls-39" points="24.74 89.98 1.81 69.28 1.81 66.51 27.8 89.98 24.74 89.98"/><polygon class="cls-39" points="1.81 69.28 24.74 89.98 1.81 89.98 1.81 69.28"/></g><g class="cls-40"><polygon class="cls-9" points="74.69 51.97 73.61 51 74.69 51 74.69 51.97"/><polygon class="cls-10" points="74.69 54.74 70.55 51 73.61 51 74.69 51.97 74.69 54.74"/><polygon class="cls-11" points="74.69 57.51 67.48 51 70.55 51 74.69 54.74 74.69 57.51"/><polygon class="cls-12" points="74.69 60.28 64.41 51 67.48 51 74.69 57.51 74.69 60.28"/><polygon class="cls-13" points="74.69 63.05 61.34 51 64.41 51 74.69 60.28 74.69 63.05"/><polygon class="cls-14" points="74.69 65.82 58.27 51 61.34 51 74.69 63.05 74.69 65.82"/><polygon class="cls-15" points="74.69 68.59 55.2 51 58.27 51 74.69 65.82 74.69 68.59"/><polygon class="cls-16" points="74.69 71.36 52.59 51.41 52.59 51 55.2 51 74.69 68.59 74.69 71.36"/><polygon class="cls-17" points="74.69 74.13 52.59 54.18 52.59 51.41 74.69 71.36 74.69 74.13"/><polygon class="cls-18" points="74.69 76.9 52.59 56.95 52.59 54.18 74.69 74.13 74.69 76.9"/><polygon class="cls-19" points="72.2 77.42 52.59 59.72 52.59 56.95 74.69 76.9 74.69 77.42 72.2 77.42"/><polygon class="cls-20" points="69.13 77.42 52.59 62.49 52.59 59.72 72.2 77.42 69.13 77.42"/><polygon class="cls-21" points="66.06 77.42 52.59 65.26 52.59 62.49 69.13 77.42 66.06 77.42"/><polygon class="cls-22" points="62.99 77.42 52.59 68.03 52.59 65.26 66.06 77.42 62.99 77.42"/><polygon class="cls-23" points="59.92 77.42 52.59 70.8 52.59 68.03 62.99 77.42 59.92 77.42"/><polygon class="cls-24" points="56.85 77.42 52.59 73.57 52.59 70.8 59.92 77.42 56.85 77.42"/><polygon class="cls-25" points="53.79 77.42 52.59 76.34 52.59 73.57 56.85 77.42 53.79 77.42"/><polygon class="cls-26" points="52.59 76.34 53.79 77.42 52.59 77.42 52.59 76.34"/><polygon class="cls-41" points="93.24 2.23 93.08 2.09 93.24 2.09 93.24 2.23"/><polygon class="cls-42" points="93.24 5 90.01 2.09 93.08 2.09 93.24 2.23 93.24 5"/><polygon class="cls-43" points="93.24 7.77 86.94 2.09 90.01 2.09 93.24 5 93.24 7.77"/><polygon class="cls-44" points="93.24 10.54 83.87 2.09 86.94 2.09 93.24 7.77 93.24 10.54"/><polygon class="cls-45" points="93.24 13.31 80.81 2.09 83.87 2.09 93.24 10.54 93.24 13.31"/><polygon class="cls-46" points="93.24 16.08 77.74 2.09 80.81 2.09 93.24 13.31 93.24 16.08"/><polygon class="cls-47" points="93.24 18.85 74.67 2.09 77.74 2.09 93.24 16.08 93.24 18.85"/><polygon class="cls-48" points="93.24 21.62 71.6 2.09 74.67 2.09 93.24 18.85 93.24 21.62"/><polygon class="cls-49" points="93.24 24.39 68.53 2.09 71.6 2.09 93.24 21.62 93.24 24.39"/><polygon class="cls-50" points="93.24 27.16 65.46 2.09 68.53 2.09 93.24 24.39 93.24 27.16"/><polygon class="cls-51" points="93.24 29.93 62.39 2.09 65.46 2.09 93.24 27.16 93.24 29.93"/><polygon class="cls-52" points="93.24 32.7 59.33 2.09 62.39 2.09 93.24 29.93 93.24 32.7"/><polygon class="cls-53" points="93.24 35.47 56.26 2.09 59.33 2.09 93.24 32.7 93.24 35.47"/><polygon class="cls-54" points="93.24 38.24 53.19 2.09 56.26 2.09 93.24 35.47 93.24 38.24"/><polygon class="cls-55" points="93.24 41.01 50.12 2.09 53.19 2.09 93.24 38.24 93.24 41.01"/><polygon class="cls-56" points="93.24 43.78 48.7 3.58 50.05 2.09 50.12 2.09 93.24 41.01 93.24 43.78"/><polygon class="cls-57" points="93.24 46.55 47.33 5.11 48.7 3.58 93.24 43.78 93.24 46.55"/><polygon class="cls-58" points="93.24 49.32 47.18 7.75 47.18 5.27 47.33 5.11 93.24 46.55 93.24 49.32"/><polygon class="cls-3" points="93.24 52.09 47.18 10.52 47.18 7.75 93.24 49.32 93.24 52.09"/><polygon class="cls-4" points="93.24 54.86 47.18 13.29 47.18 10.52 93.24 52.09 93.24 54.86"/><polygon class="cls-5" points="93.24 57.63 47.18 16.05 47.18 13.29 93.24 54.86 93.24 57.63"/><polygon class="cls-6" points="93.24 60.4 47.18 18.82 47.18 16.05 93.24 57.63 93.24 60.4"/><polygon class="cls-7" points="93.24 63.17 47.18 21.59 47.18 18.82 93.24 60.4 93.24 63.17"/><polygon class="cls-8" points="93.24 65.94 47.18 24.36 47.18 21.59 93.24 63.17 93.24 65.94"/><polygon class="cls-9" points="93.24 68.71 47.18 27.14 47.18 24.36 93.24 65.94 93.24 68.71"/><polygon class="cls-10" points="93.24 69.49 92.25 70.59 47.18 29.91 47.18 27.14 93.24 68.71 93.24 69.49"/><polygon class="cls-11" points="92.25 70.59 90.87 72.11 47.18 32.67 47.18 29.91 92.25 70.59"/><polygon class="cls-12" points="90.87 72.11 89.49 73.64 47.18 35.45 47.18 32.67 90.87 72.11"/><polygon class="cls-13" points="89.49 73.64 88.11 75.17 47.18 38.22 47.18 35.45 89.49 73.64"/><polygon class="cls-14" points="88.11 75.17 86.73 76.69 47.18 40.98 47.18 38.22 88.11 75.17"/><polygon class="cls-15" points="86.73 76.69 85.36 78.22 47.18 43.76 47.18 40.98 86.73 76.69"/><polygon class="cls-16" points="85.36 78.22 83.98 79.75 47.18 46.52 47.18 43.76 85.36 78.22"/><polygon class="cls-17" points="83.98 79.75 82.6 81.27 47.18 49.3 47.18 46.52 83.98 79.75"/><polygon class="cls-18" points="82.6 81.27 81.22 82.8 47.18 52.06 47.18 49.3 82.6 81.27"/><polygon class="cls-19" points="81.22 82.8 79.85 84.33 47.18 54.83 47.18 52.06 81.22 82.8"/><polygon class="cls-20" points="79.85 84.33 78.47 85.85 47.18 57.6 47.18 54.83 79.85 84.33"/><polygon class="cls-21" points="78.47 85.85 77.09 87.38 47.18 60.37 47.18 57.6 78.47 85.85"/><polygon class="cls-22" points="77.09 87.38 75.71 88.9 47.18 63.14 47.18 60.37 77.09 87.38"/><polygon class="cls-23" points="75.71 88.9 74.34 90.43 47.18 65.91 47.18 63.14 75.71 88.9"/><polygon class="cls-24" points="74.34 90.43 72.96 91.96 47.18 68.68 47.18 65.91 74.34 90.43"/><polygon class="cls-25" points="72.96 91.96 72.45 92.52 70.51 92.52 47.18 71.45 47.18 68.68 72.96 91.96"/><polygon class="cls-26" points="67.44 92.52 47.18 74.22 47.18 71.45 70.51 92.52 67.44 92.52"/><polygon class="cls-27" points="64.37 92.52 47.18 76.99 47.18 74.22 67.44 92.52 64.37 92.52"/><polygon class="cls-28" points="61.3 92.52 47.18 79.76 47.18 76.99 64.37 92.52 61.3 92.52"/><polygon class="cls-29" points="58.24 92.52 47.18 82.53 47.18 79.76 61.3 92.52 58.24 92.52"/><polygon class="cls-30" points="55.17 92.52 47.18 85.3 47.18 82.53 58.24 92.52 55.17 92.52"/><polygon class="cls-31" points="52.1 92.52 47.18 88.07 47.18 85.3 55.17 92.52 52.1 92.52"/><polygon class="cls-32" points="49.03 92.52 47.18 90.84 47.18 88.07 52.1 92.52 49.03 92.52"/><polygon class="cls-33" points="47.18 90.84 49.03 92.52 47.18 92.52 47.18 90.84"/></g><path class="cls-59" d="M122.4,41.47V45.3H107V24.67h15V28.5H111.6V33h9.21v3.71H111.6v4.78Z"/><path class="cls-59" d="M146.65,24.67V45.3h-3.77L133,32.77V45.3h-4.53V24.67h3.8l9.86,12.52V24.67Z"/><path class="cls-59" d="M167.16,34.66h4.2V43a13.33,13.33,0,0,1-8,2.62c-6.24,0-10.83-4.45-10.83-10.67s4.59-10.66,10.91-10.66a10.39,10.39,0,0,1,8.31,3.56l-2.95,2.83a6.61,6.61,0,0,0-5.13-2.33,6.23,6.23,0,0,0-6.49,6.6,6.25,6.25,0,0,0,6.43,6.6,7,7,0,0,0,3.57-.88Z"/><path class="cls-59" d="M178,24.67h4.59V45.3H178Z"/><path class="cls-59" d="M207.9,24.67V45.3h-3.76l-9.89-12.53V45.3h-4.54V24.67h3.8l9.86,12.52V24.67Z"/><path class="cls-59" d="M230.37,41.47V45.3H215V24.67h15V28.5H219.58V33h9.21v3.71h-9.21v4.78Z"/><path class="cls-59" d="M251.79,41.47V45.3H236.43V24.67h15V28.5H241V33h9.21v3.71H241v4.78Z"/><path class="cls-59" d="M270.49,45.3l-3.82-5.75h-4.23V45.3h-4.59V24.67h8.59c5.3,0,8.61,2.86,8.61,7.48A6.72,6.72,0,0,1,271,38.67l4.45,6.63Zm-4.31-16.74h-3.74v7.19h3.74c2.81,0,4.23-1.36,4.23-3.6S269,28.56,266.18,28.56Z"/><path class="cls-59" d="M281.09,24.67h4.59V45.3h-4.59Z"/><path class="cls-59" d="M311,24.67V45.3h-3.77l-9.89-12.53V45.3h-4.53V24.67h3.79l9.86,12.52V24.67Z"/><path class="cls-59" d="M331.49,34.66h4.19V43a13.3,13.3,0,0,1-8,2.62c-6.24,0-10.83-4.45-10.83-10.67s4.59-10.66,10.91-10.66a10.35,10.35,0,0,1,8.3,3.56l-2.94,2.83A6.61,6.61,0,0,0,328,28.38a6.22,6.22,0,0,0-6.49,6.6,6.24,6.24,0,0,0,6.43,6.6,7,7,0,0,0,3.57-.88Z"/><path class="cls-60" d="M110.57,60.85V68h10.06v2.54H110.57v8.33H107.7V58.29h14.17v2.56Z"/><path class="cls-60" d="M121.89,71.11a7.9,7.9,0,1,1,7.92,8A7.67,7.67,0,0,1,121.89,71.11Zm13,0c0-3.33-2.18-5.48-5.1-5.48s-5.14,2.15-5.14,5.48,2.21,5.51,5.14,5.51S134.91,74.44,134.91,71.11Z"/><path class="cls-60" d="M153.94,63.3V78.91h-2.6V76.56a6.14,6.14,0,0,1-5.17,2.53c-3.92,0-6.53-2.21-6.53-6.81v-9h2.75V72c0,3.07,1.49,4.6,4.1,4.6,2.87,0,4.7-1.83,4.7-5.19V63.3Z"/><path class="cls-60" d="M171.89,69.93v9h-2.75V70.25c0-3.06-1.49-4.57-4.1-4.57-2.93,0-4.82,1.8-4.82,5.19v8h-2.75V63.3h2.64v2.35a6.42,6.42,0,0,1,5.47-2.5C169.28,63.15,171.89,65.33,171.89,69.93Z"/><path class="cls-60" d="M189.69,57.05V78.91h-2.64V76.44a6.34,6.34,0,0,1-5.41,2.65c-4.45,0-7.69-3.21-7.69-8s3.24-8,7.69-8a6.41,6.41,0,0,1,5.3,2.5v-8.6ZM187,71.11c0-3.33-2.21-5.48-5.11-5.48s-5.13,2.15-5.13,5.48,2.21,5.51,5.13,5.51S187,74.44,187,71.11Z"/><path class="cls-60" d="M205.23,69.49v9.42h-2.61V76.85c-.92,1.42-2.61,2.24-5,2.24-3.44,0-5.62-1.88-5.62-4.6,0-2.5,1.58-4.56,6.11-4.56h4.36v-.56c0-2.39-1.35-3.77-4.07-3.77a7.5,7.5,0,0,0-4.82,1.68l-1.15-2.13a10,10,0,0,1,6.28-2C202.88,63.15,205.23,65.21,205.23,69.49Zm-2.75,4.65V72h-4.25c-2.72,0-3.49,1.09-3.49,2.42,0,1.56,1.26,2.53,3.35,2.53A4.41,4.41,0,0,0,202.48,74.14Z"/><path class="cls-60" d="M217.15,78a5.07,5.07,0,0,1-3.32,1.09c-3.07,0-4.82-1.74-4.82-4.89V65.63h-2.58V63.3H209V59.88h2.75V63.3h4.36v2.33h-4.36v8.45c0,1.68.86,2.62,2.38,2.62a3.39,3.39,0,0,0,2.15-.73Z"/><path class="cls-60" d="M218.27,58.47a1.83,1.83,0,0,1,1.86-1.86,1.84,1.84,0,1,1-1.86,1.86Zm.49,4.83h2.75V78.91h-2.75Z"/><path class="cls-60" d="M223.63,71.11a7.9,7.9,0,1,1,7.91,8A7.67,7.67,0,0,1,223.63,71.11Zm13,0c0-3.33-2.18-5.48-5.11-5.48s-5.13,2.15-5.13,5.48,2.21,5.51,5.13,5.51S236.65,74.44,236.65,71.11Z"/><path class="cls-60" d="M255.94,69.93v9h-2.75V70.25c0-3.06-1.49-4.57-4.1-4.57-2.93,0-4.82,1.8-4.82,5.19v8h-2.75V63.3h2.64v2.35a6.44,6.44,0,0,1,5.47-2.5C253.33,63.15,255.94,65.33,255.94,69.93Z"/><path class="cls-60" d="M283,73.35c0,3.53-2.61,5.56-7.68,5.56h-9.58V58.29h9c4.61,0,7.19,2,7.19,5.33a4.9,4.9,0,0,1-2.69,4.6A5,5,0,0,1,283,73.35ZM268.58,60.68v6.6h5.88c2.92,0,4.59-1.12,4.59-3.3s-1.67-3.3-4.59-3.3Zm11.5,12.43c0-2.39-1.72-3.45-4.9-3.45h-6.6v6.87h6.6C278.36,76.53,280.08,75.5,280.08,73.11Z"/><path class="cls-60" d="M297.34,69.49v9.42h-2.61V76.85c-.92,1.42-2.61,2.24-5,2.24-3.44,0-5.62-1.88-5.62-4.6,0-2.5,1.58-4.56,6.11-4.56h4.35v-.56c0-2.39-1.34-3.77-4.07-3.77a7.49,7.49,0,0,0-4.81,1.68l-1.15-2.13a10,10,0,0,1,6.28-2C295,63.15,297.34,65.21,297.34,69.49Zm-2.76,4.65V72h-4.24c-2.72,0-3.5,1.09-3.5,2.42,0,1.56,1.26,2.53,3.36,2.53A4.38,4.38,0,0,0,294.58,74.14Z"/><path class="cls-60" d="M309.26,78a5.07,5.07,0,0,1-3.32,1.09c-3.07,0-4.82-1.74-4.82-4.89V65.63h-2.58V63.3h2.58V59.88h2.75V63.3h4.36v2.33h-4.36v8.45c0,1.68.86,2.62,2.38,2.62A3.41,3.41,0,0,0,308.4,76Z"/><path class="cls-60" d="M308.94,71.11a7.7,7.7,0,0,1,8-8,6.72,6.72,0,0,1,6.19,3.33l-2.09,1.38a4.69,4.69,0,0,0-4.13-2.23,5.11,5.11,0,0,0-5.21,5.48c0,3.38,2.23,5.51,5.21,5.51a4.7,4.7,0,0,0,4.13-2.24l2.09,1.35A6.74,6.74,0,0,1,317,79.09,7.72,7.72,0,0,1,308.94,71.11Z"/><path class="cls-60" d="M339.22,69.93v9h-2.75V70.25c0-3.06-1.49-4.57-4.1-4.57-2.93,0-4.82,1.8-4.82,5.19v8H324.8V57.05h2.75v8.46a6.53,6.53,0,0,1,5.36-2.36C336.61,63.15,339.22,65.33,339.22,69.93Z"/></g></g></svg>