<svg xmlns="http://www.w3.org/2000/svg" xmlns:xlink="http://www.w3.org/1999/xlink" version="1.1" x="0px" y="0px" viewBox="0 0 64 80" style="enable-background:new 0 0 64 64;" xml:space="preserve"><path d="M8,62h23v-3h-5v-2h5h11c2.209,0,4-1.791,4-4v-2c-3.86,0-7-3.141-7-7h2c0,2.757,2.243,5,5,5v-5h7l-5-13v-2H31V5.796  C29.087,5.28,27.076,5,25,5C12.297,5,2,15.297,2,28v6.515C2,39.948,4.158,45.158,8,49V62z M42,32h2v2h-2V32z M42,36h2v2h-2V36z   M38,32h2v2h-2V32z M34,32h2v2h-2V32z M34,36h2v2h-2V36z M30,32h2v2h-2V32z M26,8h2v2h-2V8z M26,12h2v2h-2V12z M26,16h2v2h-2V16z   M26,20h2v2h-2V20z M26,24h2v2h-2V24z M26,28h2v2h-2V28z M26,32h2v2h-2V32z M26,36h2v2h-2V36z M24,59h-2v-2h2V59z M24,34h-2v-2h2V34  z M24,26h-2v-2h2V26z M24,18h-2v-2h2V18z M21,8h2v2h-2V8z M18,57h2v2h-2V57z M14,57h2v2h-2V57z"/><path d="M50,4h-5l-0.451,0.451c1.914,1.508,3.6,3.293,4.996,5.313c0.964,1.385,1.794,2.884,2.463,4.45L52.345,15H52h-1.83H45  c-0.83,0-1.58,0.34-2.12,0.88C42.34,16.42,42,17.17,42,18c0,1.66,1.34,3,3,3h6.8H62V8h-6L50,4z"/><path d="M45,13h4.192c-0.395-0.723-0.823-1.426-1.292-2.1c-1.32-1.91-2.93-3.61-4.77-5.03C40.75,4.01,38,2.61,35,1.8V25h17v-1  c0-0.337-0.019-0.668-0.034-1H45c-2.761,0-5-2.239-5-5S42.239,13,45,13z"/><text x="0" y="79" fill="#000000" font-size="5px" font-weight="bold" font-family="'Helvetica Neue', Helvetica, Arial-Unicode, Arial, Sans-serif">Created by Becris</text><text x="0" y="84" fill="#000000" font-size="5px" font-weight="bold" font-family="'Helvetica Neue', Helvetica, Arial-Unicode, Arial, Sans-serif">from the Noun Project</text></svg>